<svg width="138" height="46" viewBox="0 0 138 46" fill="none" xmlns="http://www.w3.org/2000/svg">
<path d="M23 46C35.7027 46 46 35.7027 46 23C46 10.2973 35.7027 0 23 0C10.2973 0 0 10.2973 0 23C0 35.7027 10.2973 46 23 46Z" fill="#D6001D"/>
<path fill-rule="evenodd" clip-rule="evenodd" d="M27.6749 19.7713V11.9597H23.9379V32.1997H27.6749V25.0674C27.6749 23.8704 27.7893 22.9662 28.014 22.3539C28.2417 21.7424 28.5983 21.2851 29.0856 20.9789C29.5701 20.6746 30.1262 20.5215 30.7454 20.5215C31.287 20.5215 31.7395 20.6402 32.096 20.8803C32.4498 21.1054 32.7154 21.4429 32.8488 21.8372C32.9913 22.239 33.062 23.1844 33.062 24.6771V32.1997H36.8V23.8475C36.8 22.5691 36.7361 21.6267 36.6072 21.021C36.4843 20.4235 36.2393 19.857 35.8873 19.3561C35.5385 18.8566 35.0192 18.4452 34.3274 18.1246C33.6336 17.8022 32.8556 17.6395 31.9962 17.6395C30.3229 17.6395 28.8802 18.3533 27.6749 19.7713ZM12.9408 19.7715V11.9598H9.19989V32.1998H12.9369L12.9408 25.0676C12.9369 23.8706 13.0513 22.9664 13.2799 22.354C13.5047 21.7426 13.8593 21.2852 14.3535 20.979C14.8369 20.6747 15.3931 20.5216 16.0132 20.5216C16.5548 20.5216 17.0034 20.6403 17.3638 20.8804C17.7165 21.1063 17.9813 21.4436 18.1147 21.8373C18.2571 22.2392 18.325 23.1845 18.325 24.6772V32.1998H22.0668V23.8476C22.0668 22.5693 22.0029 21.6268 21.875 21.0211C21.7461 20.4126 21.5078 19.8605 21.1551 19.3562C20.8044 18.8567 20.285 18.4453 19.5903 18.1248C18.8976 17.8023 18.1254 17.6396 17.2631 17.6396C15.5888 17.6396 14.1451 18.3534 12.9408 19.7715Z" fill="white"/>
<path d="M68.5219 30.5174H66.5824V23.0139H59.9395V30.5174H58V14.268H59.9395V21.3086H66.5824V14.268H68.5219V30.5174Z" fill="white"/>
<path d="M80.5479 30.5174H78.3659L75.2627 24.0128H72.9353V30.5174H70.9958V14.268H75.9415C77.2507 14.268 78.3175 14.7065 79.1417 15.5835C79.966 16.4606 80.3782 17.6381 80.3782 19.116C80.3782 20.464 80.063 21.5278 79.4327 22.3074C78.8023 23.087 78.0427 23.558 77.1537 23.7204L80.5479 30.5174ZM75.7233 22.3074C76.5476 22.3074 77.1941 22.0151 77.6629 21.4304C78.1477 20.8457 78.3902 20.0824 78.3902 19.1404C78.3902 18.1984 78.1477 17.435 77.6629 16.8503C77.1941 16.2657 76.5476 15.9733 75.7233 15.9733H72.9353V22.3074H75.7233Z" fill="white"/>
<path d="M91.1577 30.8097C89.1374 30.8097 87.5292 30.1276 86.3332 28.7633L87.3999 27.2773C88.3859 28.4791 89.6385 29.08 91.1577 29.08C92.1275 29.08 92.8629 28.8283 93.3639 28.3248C93.865 27.8051 94.1155 27.1717 94.1155 26.4246C94.1155 25.71 93.865 25.1009 93.3639 24.5974C92.8629 24.0777 92.2568 23.6555 91.5456 23.3306C90.8345 23.0058 90.1152 22.6566 89.3879 22.2831C88.6768 21.9095 88.0707 21.3898 87.5696 20.7239C87.0686 20.0418 86.8181 19.2216 86.8181 18.2633C86.8181 17.029 87.2545 16.0139 88.1272 15.2181C89 14.406 90.1072 14 91.4487 14C93.2266 14 94.665 14.5684 95.7641 15.7053L94.7458 17.1671C93.8892 16.2088 92.774 15.7297 91.4002 15.7297C90.6567 15.7297 90.0344 15.9571 89.5334 16.4118C89.0324 16.8666 88.7818 17.4513 88.7818 18.1659C88.7818 18.7019 88.9596 19.181 89.3152 19.6032C89.6869 20.0093 90.1395 20.3422 90.6729 20.6021C91.2062 20.8457 91.7881 21.1381 92.4184 21.4791C93.0649 21.8202 93.6549 22.1694 94.1882 22.5267C94.7216 22.884 95.1661 23.3956 95.5216 24.0615C95.8934 24.7111 96.0793 25.4582 96.0793 26.3028C96.0793 27.5858 95.6509 28.6578 94.7943 29.5186C93.9539 30.3794 92.7417 30.8097 91.1577 30.8097Z" fill="white"/>
<path d="M106.224 29.1288C105.48 30.2494 104.454 30.8097 103.145 30.8097C101.836 30.8097 100.809 30.1439 100.066 28.8121V35H98.3445V18.7506H100.066V20.4316C100.405 19.8306 100.85 19.3515 101.399 18.9942C101.949 18.6369 102.531 18.4582 103.145 18.4582C104.454 18.4582 105.48 19.0186 106.224 20.1392C106.967 21.2599 107.339 22.7541 107.339 24.6218C107.339 26.4896 106.967 27.9919 106.224 29.1288ZM102.708 29.2506C103.63 29.2506 104.325 28.8202 104.793 27.9594C105.278 27.0824 105.521 25.9698 105.521 24.6218C105.521 23.2738 105.278 22.1694 104.793 21.3086C104.325 20.4478 103.63 20.0174 102.708 20.0174C102.175 20.0174 101.658 20.2042 101.157 20.5777C100.672 20.935 100.308 21.3817 100.066 21.9176V27.3016C100.308 27.8376 100.672 28.3005 101.157 28.6903C101.658 29.0638 102.175 29.2506 102.708 29.2506Z" fill="white"/>
<path d="M117.409 30.5174H115.664V29.2506C114.936 30.29 113.91 30.8097 112.585 30.8097C111.599 30.8097 110.758 30.4524 110.063 29.7378C109.385 29.0232 109.045 28.0731 109.045 26.8875C109.045 25.7019 109.385 24.7599 110.063 24.0615C110.742 23.3631 111.583 23.0139 112.585 23.0139C113.942 23.0139 114.969 23.5174 115.664 24.5244V22.478C115.664 21.6821 115.454 21.065 115.033 20.6265C114.613 20.1879 114.023 19.9687 113.264 19.9687C112.148 19.9687 111.171 20.4478 110.33 21.406L109.554 20.1636C110.637 19.0267 111.962 18.4582 113.53 18.4582C114.742 18.4582 115.688 18.7749 116.367 19.4084C117.062 20.0255 117.409 20.9838 117.409 22.2831V30.5174ZM113.142 29.5429C114.274 29.5429 115.114 29.0476 115.664 28.0568V25.8155C115.13 24.8086 114.29 24.3051 113.142 24.3051C112.431 24.3051 111.865 24.5568 111.445 25.0603C111.025 25.5476 110.815 26.1647 110.815 26.9118C110.815 27.6589 111.025 28.2842 111.445 28.7877C111.865 29.2912 112.431 29.5429 113.142 29.5429Z" fill="white"/>
<path d="M124.283 30.8097C122.813 30.8097 121.633 30.2251 120.744 29.0557C119.871 27.8863 119.435 26.4084 119.435 24.6218C119.435 22.8353 119.871 21.3654 120.744 20.2123C121.633 19.0429 122.813 18.4582 124.283 18.4582C125.673 18.4582 126.789 18.978 127.629 20.0174L126.684 21.2111C126.102 20.4153 125.35 20.0174 124.429 20.0174C123.427 20.0174 122.643 20.4559 122.077 21.3329C121.528 22.21 121.253 23.3063 121.253 24.6218C121.253 25.9374 121.528 27.0418 122.077 27.935C122.643 28.8121 123.427 29.2506 124.429 29.2506C125.334 29.2506 126.086 28.8527 126.684 28.0568L127.629 29.2506C126.805 30.29 125.69 30.8097 124.283 30.8097Z" fill="white"/>
<path d="M133.636 30.8097C132.101 30.8097 130.88 30.2413 129.975 29.1044C129.07 27.9513 128.618 26.4571 128.618 24.6218C128.618 22.8677 129.046 21.406 129.903 20.2367C130.775 19.051 131.931 18.4582 133.369 18.4582C134.856 18.4582 135.996 19.0429 136.788 20.2123C137.596 21.3817 138 22.8678 138 24.6705V25.2065H130.412C130.444 26.4246 130.759 27.4234 131.357 28.203C131.955 28.9664 132.763 29.348 133.782 29.348C134.881 29.348 135.81 28.8689 136.57 27.9107L137.491 28.9339C136.473 30.1845 135.188 30.8097 133.636 30.8097ZM136.279 23.9153C136.263 22.8596 136.012 21.9339 135.527 21.1381C135.042 20.326 134.315 19.92 133.345 19.92C132.408 19.92 131.688 20.3341 131.187 21.1624C130.703 21.9745 130.444 22.8921 130.412 23.9153H136.279Z" fill="white"/>
</svg>
