<svg width="192" height="111" viewBox="0 0 192 111" fill="none" xmlns="http://www.w3.org/2000/svg">
<path d="M180 66C180 83.9024 178.114 87.0148 147.5 94.7861C134.198 98.1629 114.56 90.8998 98.5 90.8998C66.3693 90.8998 38.9254 102.64 21.5 90.8998C10.1715 83.2672 3.5 73.9041 3.5 63.7861C3.5 50.4879 22.0246 51.0805 40.5 44.2861C57.704 37.9593 69.935 15.2861 95.5 15.2861C130.57 15.2861 163.248 20.8259 180 32.5C188.574 38.475 180 57.3058 180 66Z" fill="#D9D9D9"/>
<path d="M136.037 43.8348C135.715 43.8348 135.715 44.4327 136.037 44.4327C136.803 44.4327 147.481 44.2564 148.378 44.0801C148.46 44.0678 148.535 44.0266 148.588 43.964C148.642 43.9014 148.672 43.8216 148.672 43.739C148.672 43.6564 148.642 43.5765 148.588 43.5139C148.535 43.4513 148.46 43.4102 148.378 43.3979C145.565 43.0299 139.134 43.7735 136.037 43.8348ZM140.314 59.4878C139.962 59.4878 140.023 60.078 140.36 60.0933C142.859 60.1777 146.753 60.0473 149.306 59.9324C149.773 59.9324 149.827 59.1658 149.306 59.1658C146.447 59.1811 143.181 59.2195 140.314 59.4878ZM140.644 33.0495C140.57 33.0527 140.499 33.0827 140.445 33.1341C140.391 33.1855 140.358 33.2547 140.352 33.3287C140.345 33.4028 140.366 33.4767 140.41 33.5367C140.453 33.5968 140.518 33.6388 140.59 33.655C141.962 33.8237 146.416 34 147.757 33.4327C147.826 33.3987 147.882 33.3432 147.916 33.2747C147.95 33.2062 147.961 33.1284 147.948 33.053C147.934 32.9777 147.896 32.9089 147.839 32.857C147.783 32.8052 147.711 32.7732 147.635 32.7658C145.856 32.6585 143.005 33.2258 140.644 33.0495ZM131.89 47.8592C138.36 47.7672 145.688 47.3149 152.219 46.717C152.625 46.717 152.587 45.9505 152.165 45.9505C145.741 46.1115 138.237 46.5331 131.852 47.1923C131.763 47.1974 131.68 47.2374 131.621 47.3035C131.562 47.3696 131.532 47.4565 131.537 47.5449C131.542 47.6333 131.582 47.7161 131.648 47.7751C131.715 47.834 131.801 47.8643 131.89 47.8592ZM141.165 13.7171C142.966 13.5791 144.768 13.4718 146.531 13.2571C147.037 13.2035 146.907 12.4906 146.408 12.4906C144.615 12.6286 142.821 12.8585 141.042 13.0655C140.629 13.1115 140.743 13.7477 141.165 13.7171ZM130.648 29.7073C130.265 29.7073 130.249 30.3589 130.648 30.3895C134.982 30.5914 139.324 30.2878 143.587 29.485C144.07 29.4007 143.994 28.6341 143.503 28.7184C139.258 29.4425 134.954 29.7735 130.648 29.7073ZM144.914 17.3888C145.58 17.5498 145.68 16.4613 145.067 16.5686C142.075 17.0537 139.043 17.2411 136.014 17.1282C135.608 17.1282 135.516 17.7185 135.93 17.7644C138.927 18.0653 141.952 17.9389 144.914 17.3888ZM128.31 47.4989C127.712 47.269 124.953 47.6522 124.178 47.7365C123.803 47.7365 123.787 48.3421 124.178 48.3345L127.314 48.2348C128.762 48.1811 128.755 47.6752 128.31 47.4989ZM131.476 80.6675C130.832 80.5142 126.256 80.8592 125.504 80.9052C125.106 80.9052 125.183 81.5184 125.581 81.5107C126.394 81.5107 130.847 81.5107 131.553 81.2884C131.867 81.1811 131.76 80.7289 131.476 80.6675ZM125.497 77.425C127.651 77.5247 132.986 77.6167 135.14 77.1031C135.19 77.1027 135.24 77.0918 135.286 77.071C135.332 77.0502 135.373 77.0201 135.406 76.9825C135.44 76.9449 135.465 76.9008 135.48 76.8529C135.496 76.8049 135.501 76.7543 135.495 76.7043C135.49 76.6542 135.474 76.6059 135.449 76.5623C135.424 76.5188 135.39 76.481 135.349 76.4514C135.308 76.4218 135.262 76.4011 135.213 76.3905C135.163 76.38 135.113 76.3799 135.063 76.3902C131.913 76.3902 128.992 76.9191 125.589 76.7811C125.183 76.7658 125.075 77.402 125.497 77.425ZM132.932 63.7958C133.392 63.7114 133.354 63.0292 132.871 63.0292C129.468 63.3742 128.755 63.4585 125.267 63.5965C124.93 63.5965 124.891 64.179 125.267 64.202C127.829 64.3721 130.402 64.2358 132.932 63.7958ZM137.654 58.9742C133.484 59.1275 129.153 59.8327 124.799 59.986C124.721 59.998 124.65 60.0374 124.599 60.0972C124.548 60.1569 124.52 60.2331 124.52 60.3118C124.52 60.3905 124.548 60.4667 124.599 60.5264C124.65 60.5862 124.721 60.6256 124.799 60.6376C128.41 60.6376 134.22 60.4689 137.739 59.6871C137.812 59.6546 137.873 59.5994 137.913 59.5296C137.953 59.4599 137.969 59.3792 137.96 59.2995C137.95 59.2198 137.915 59.1451 137.86 59.0866C137.806 59.0281 137.733 58.9887 137.654 58.9742ZM151.858 78.7895C151.797 78.7895 147.589 79.1344 146.868 79.1114C146.8 79.1237 146.737 79.1576 146.69 79.2082C146.643 79.2589 146.613 79.3234 146.605 79.3923C146.597 79.4612 146.612 79.5308 146.647 79.5907C146.682 79.6506 146.735 79.6976 146.799 79.7247C147.658 79.8856 151.276 79.947 152.019 79.3184C152.057 79.2771 152.083 79.2269 152.095 79.1725C152.107 79.1182 152.105 79.0616 152.089 79.0082C152.073 78.9549 152.043 78.9068 152.003 78.8684C151.962 78.8301 151.913 78.8029 151.858 78.7895ZM153.215 62.071C147.903 62.416 141.97 62.6153 136.681 63.0675C136.267 63.0675 136.343 63.6884 136.742 63.7114C139.601 63.7958 149.773 63.2745 153.284 62.8299C153.334 62.8261 153.383 62.8123 153.428 62.7892C153.472 62.7662 153.512 62.7344 153.544 62.6959C153.576 62.6573 153.6 62.6126 153.615 62.5645C153.63 62.5165 153.634 62.4659 153.629 62.416C153.619 62.3156 153.571 62.2231 153.493 62.1585C153.416 62.0939 153.316 62.0625 153.215 62.071ZM133.262 44.6397C133.364 44.6397 133.461 44.5993 133.533 44.5274C133.605 44.4555 133.645 44.3581 133.645 44.2564C133.645 44.1548 133.605 44.0573 133.533 43.9854C133.461 43.9135 133.364 43.8731 133.262 43.8731C129.958 43.9575 126.624 43.9804 123.297 44.2334C123.225 44.2493 123.161 44.2891 123.116 44.3462C123.07 44.4034 123.045 44.4744 123.045 44.5477C123.045 44.621 123.07 44.692 123.116 44.7492C123.161 44.8063 123.225 44.8461 123.297 44.862C126.639 44.9233 129.958 44.747 133.262 44.6397ZM146.332 75.5853C145.166 75.5853 140.966 75.8843 139.969 76.0606C139.647 76.1142 139.601 76.6431 139.969 76.6585C141.05 76.7121 145.228 76.4438 146.439 76.3365C146.907 76.3519 146.807 75.5853 146.332 75.5853ZM144.093 79.8857L134.458 80.4989C134.021 80.4989 134.128 81.1658 134.557 81.1428C136.428 81.0585 142.445 80.8208 144.132 80.5909C144.507 80.5449 144.515 79.8857 144.093 79.8857ZM137.194 13.2571C134.366 12.9352 125.489 13.4718 122.477 13.7784C122.063 13.8167 122.032 14.4606 122.477 14.4223C127.429 14.1003 132.25 13.993 137.202 14.0083C137.288 13.9899 137.366 13.9421 137.421 13.8731C137.476 13.804 137.506 13.718 137.505 13.6296C137.504 13.5412 137.473 13.4558 137.416 13.3879C137.36 13.32 137.281 13.2738 137.194 13.2571ZM138.015 33.9463C138.497 33.8773 138.321 33.1798 137.838 33.1798C132.904 33.7419 127.94 33.9979 122.975 33.9463C122.903 33.9578 122.837 33.9946 122.79 34.0501C122.743 34.1056 122.717 34.1762 122.717 34.2491C122.717 34.322 122.743 34.3926 122.79 34.4481C122.837 34.5036 122.903 34.5404 122.975 34.5519C127.996 34.7937 133.029 34.5911 138.015 33.9463ZM132.81 17.8948C132.86 17.89 132.909 17.8752 132.954 17.8514C132.998 17.8276 133.038 17.7951 133.07 17.7559C133.102 17.7167 133.126 17.6715 133.141 17.623C133.155 17.5745 133.16 17.5235 133.155 17.4732C133.15 17.4227 133.135 17.3738 133.111 17.3291C133.087 17.2844 133.055 17.2448 133.016 17.2127C132.977 17.1807 132.931 17.1567 132.883 17.1422C132.834 17.1277 132.783 17.1229 132.733 17.1282C129.353 17.5498 126.148 17.5651 122.814 17.8564C122.461 17.8948 122.423 18.4697 122.814 18.485C126.156 18.539 129.497 18.3417 132.81 17.8948ZM123.312 30.0292C122.929 30.0292 122.921 30.6348 123.358 30.6501C124.734 30.7797 126.117 30.8156 127.497 30.7575C127.56 30.7297 127.612 30.6845 127.65 30.6274C127.687 30.5702 127.706 30.5036 127.706 30.4355C127.706 30.3674 127.687 30.3008 127.65 30.2436C127.612 30.1865 127.56 30.1413 127.497 30.1136C127.36 30.0369 124.017 30.0292 123.312 30.0292ZM113.746 34.4446C114.19 34.4446 115.838 31.7157 116.766 30.7805C117.103 30.4432 116.551 29.8759 116.206 30.1979C115.228 31.0795 114.382 32.0966 113.692 33.2181L111.753 31.432C111.354 31.0641 110.84 31.6927 111.208 32.0683C111.576 32.4439 113.178 34.4446 113.746 34.4446ZM108.502 21.9268C111.645 22.1108 114.911 22.0495 118.36 22.0725C118.606 22.0725 118.751 21.3902 118.36 13.2495C118.36 12.6592 118.307 12.2223 118.299 12.0613C118.301 12.0376 118.298 12.0137 118.29 11.9912C118.282 11.9688 118.269 11.9482 118.253 11.931C118.031 11.6934 116.582 11.7087 113.324 11.793C107.843 11.9233 107.238 11.885 107.238 12.1993C107.215 12.2606 107.56 21.8348 108.502 21.9268ZM108.717 21.3596C108.334 19.3129 108.058 14.9895 107.82 12.5672C110.051 12.6976 115.133 12.4446 117.693 12.3833C117.693 12.3833 117.831 19.1979 117.893 21.3979C114.888 21.3289 111.753 21.2139 108.686 21.3212L108.717 21.3596Z" fill="black"/>
<path d="M119.418 36.4453C120.062 36.1923 119.311 29.048 119.203 27.17C119.198 27.1314 119.179 27.096 119.15 27.0704C118.69 26.6717 108.962 27.2007 108.472 27.239C107.981 27.2773 108.472 29.9449 108.556 31.7616C108.732 36.2843 108.939 36.6752 109.169 36.7059C110.84 36.9435 117.885 37.0432 119.418 36.4453ZM108.939 27.8676C112.258 27.6529 115.624 27.6376 118.613 27.6223C118.69 29.416 118.812 34.4676 118.966 35.832C115.842 36.1551 112.698 36.2448 109.56 36.1003C109.691 34.9581 109.054 29.163 108.939 27.8676ZM115.179 47.223L116.957 45.6132C117.009 45.5256 117.032 45.4238 117.023 45.3224C117.013 45.221 116.972 45.1252 116.905 45.0487C116.838 44.9722 116.748 44.9189 116.649 44.8964C116.549 44.8738 116.445 44.8833 116.352 44.9233C115.624 45.3718 114.963 45.9215 114.389 46.5561L112.795 45.0843C112.709 45.004 112.594 44.9613 112.476 44.9656C112.358 44.9699 112.247 45.0209 112.166 45.1073C112.086 45.1937 112.043 45.3084 112.048 45.4263C112.052 45.5442 112.103 45.6555 112.189 45.7358L113.723 47.2689C112.343 48.7254 111.737 49.6376 111.875 50.0515C112.013 50.4655 112.511 50.2815 112.642 50.0975C113.178 49.4383 113.784 48.6871 114.435 47.9895C115.081 48.6947 115.798 49.3318 116.574 49.8905C116.654 49.9113 116.738 49.9101 116.818 49.887C116.897 49.864 116.969 49.8199 117.026 49.7595C117.082 49.699 117.121 49.6245 117.139 49.5437C117.157 49.4629 117.152 49.3788 117.126 49.3003C116.549 48.5437 115.897 47.8477 115.179 47.223ZM115.585 14.361C114.361 15.4318 113.36 16.7344 112.642 18.1937C112.064 17.5025 111.4 16.8892 110.664 16.3693C110.212 16.055 109.629 16.6529 110.074 16.9902C110.948 17.763 111.765 18.5982 112.519 19.4892C112.718 19.6961 112.91 19.5888 113.079 19.3665C113.913 17.7402 114.943 16.2214 116.145 14.8439C116.513 14.4376 115.984 13.9853 115.585 14.361ZM115.34 64.409C115.739 64.133 117.256 61.2048 118.138 60.2083C118.483 59.825 117.885 59.2961 117.494 59.7024C116.445 60.7835 115.545 62.0004 114.819 63.3205L113.033 61.7874C112.642 61.4578 112.121 62.048 112.527 62.439C112.933 62.8299 114.681 64.9762 115.34 64.409ZM121.189 74.2362C120.898 73.6613 110.411 74.2362 110.311 74.2362C110.289 74.239 110.267 74.2475 110.248 74.2608C110.229 74.2742 110.214 74.2921 110.204 74.3128C109.852 74.8801 110.204 84.1017 110.457 84.9602C110.756 86.0027 120.92 85.1365 121.426 85.1825C121.442 85.1859 121.457 85.1859 121.473 85.1825C121.488 85.1791 121.502 85.1724 121.515 85.1629C121.527 85.1535 121.537 85.1414 121.545 85.1275C121.552 85.1137 121.556 85.0985 121.557 85.0829C121.718 83.91 121.227 74.3128 121.189 74.2362ZM110.802 74.7958C113.868 74.9261 117.494 74.7344 120.606 74.7268C120.652 76.0069 120.928 83.5191 120.966 84.5309C117.563 84.6842 114.704 84.6306 111.078 84.5309C111.116 83.2508 110.848 75.9609 110.802 74.8187V74.7958Z" fill="black"/>
<path d="M114.504 79.763C115.049 79.763 117.831 79.9546 118.054 79.832C118.112 79.7987 118.162 79.7523 118.2 79.6964C118.238 79.6405 118.262 79.5767 118.271 79.5099C118.28 79.4431 118.273 79.3751 118.251 79.3113C118.23 79.2475 118.193 79.1896 118.146 79.1421C117.739 78.7128 115.171 78.8048 114.742 78.8891C114.16 78.9965 114.052 79.2188 114.068 79.3874C114.088 79.4898 114.142 79.5824 114.221 79.6505C114.3 79.7186 114.4 79.7582 114.504 79.763ZM115.539 57.2648C113.025 57.3108 110.38 57.4027 109.944 57.4334C109.775 57.4334 109.599 57.579 109.576 59.1735C109.576 61.0822 109.905 67.1303 110.672 67.1839C112.205 67.2989 120.131 67.3296 121.15 67.2529C121.311 67.2529 121.442 67.2529 121.15 63.2669C120.989 61.2125 120.629 57.4794 120.629 57.4794C120.599 57.3261 120.583 57.1881 115.539 57.2648ZM120.054 57.9393C120.238 60.7986 120.338 63.7268 120.645 66.6013H110.894C110.595 63.8341 110.396 60.9825 110.181 58.0543L120.054 57.9393ZM111.753 52.9491C114.865 52.9491 120.07 52.5275 120.116 52.5045C120.606 52.2515 120.116 45.3296 119.955 42.3707C119.955 41.8418 117.249 41.8341 115.003 41.9184C114.022 41.9184 109.146 42.1791 109.162 42.8766C109.422 53.1407 109.361 52.6425 109.553 52.7498C110.27 52.9369 111.013 53.0043 111.753 52.9491ZM110.135 52.1825C109.959 49.1623 109.898 45.9582 109.775 42.9839C112.958 42.7012 116.154 42.5938 119.349 42.662C119.349 43.7122 119.556 50.6954 119.686 51.8606C118.552 51.9372 111.323 51.9909 110.158 52.1902L110.135 52.1825Z" fill="black"/>
<path d="M167.711 64.294C165.702 9.66201 166.546 10.1219 166.178 9.79999C165.656 9.3094 161.632 9.63135 160.643 9.68501L160.229 1.30662C160.249 1.25609 160.256 1.20154 160.25 1.1476C160.244 1.09367 160.226 1.04193 160.196 0.996795C160.166 0.951656 160.125 0.914442 160.077 0.888311C160.03 0.862179 159.977 0.847901 159.923 0.846688C143.825 0.647385 127.26 1.71289 110.649 2.83972C106.172 3.154 101.519 3.42996 96.9658 3.91289C96.9232 3.90605 96.8797 3.90874 96.8383 3.92078C96.7969 3.93282 96.7586 3.9539 96.7264 3.9825C96.6941 4.0111 96.6686 4.04651 96.6517 4.08617C96.6347 4.12583 96.6268 4.16876 96.6285 4.21184C97.4717 24.6787 99.9247 57.763 104.164 94.3964C104.21 94.818 107.705 94.4501 110.848 94.2431C110.889 95.1449 111.052 96.037 111.331 96.8954C111.791 97.478 168.654 93.9518 168.585 91.5295C168.339 82.4306 168.01 73.2167 167.711 64.294ZM163.403 88.1951C143.242 91.2613 125.114 92.1198 104.869 93.8675C100.86 59.1351 99.2118 35.3108 97.2034 4.44947C103.428 4.08153 126.447 1.96585 159.7 1.52892C160.528 23.8125 163.61 85.7421 163.38 88.1951H163.403ZM67.1777 35.4947C66.6564 35.4947 66.6641 36.5066 66.9094 36.8899C66.9377 36.946 66.9818 36.9926 67.0363 37.0239C67.0908 37.0552 67.1533 37.0699 67.216 37.0662C67.6836 37.0125 67.6606 35.5484 67.1777 35.4947ZM64.4411 39.9254C64.7707 40.0097 65.6599 40.0634 65.8669 39.7568C66.1582 39.3275 65.3686 35.4334 65.269 35.1575C65.2485 35.1012 65.2086 35.0539 65.1565 35.0243C65.1045 34.9946 65.0436 34.9844 64.9847 34.9954C64.9258 35.0065 64.8727 35.038 64.8349 35.0846C64.7971 35.1311 64.7771 35.1895 64.7784 35.2495C64.7784 35.947 65.0927 38.3157 65.2153 39.3045L64.4488 39.3505C64.3927 39.3744 64.3448 39.414 64.3109 39.4646C64.277 39.5152 64.2585 39.5745 64.2577 39.6355C64.2568 39.6964 64.2737 39.7562 64.3063 39.8077C64.3389 39.8591 64.3857 39.9001 64.4411 39.9254ZM66.5261 34.0613C66.753 33.9992 66.9916 33.9932 67.2213 34.044C67.4511 34.0947 67.665 34.2006 67.8446 34.3526C68.1435 34.6209 68.7184 34.1073 67.8982 33.586C67.308 33.1874 65.9282 33.0495 66.0738 33.7547C66.0976 33.8529 66.1571 33.9387 66.2407 33.9954C66.3244 34.0521 66.4261 34.0756 66.5261 34.0613Z" fill="black"/>
<path d="M89.0014 61.9254C84.0724 57.0654 75.2035 51.3546 67.2313 50.2202C67.3634 49.7645 67.3634 49.2807 67.2313 48.825C67.8382 48.3178 68.4022 47.7615 68.9178 47.1616C70.0139 45.8738 69.9909 44.6167 68.4272 45.2529C69.9603 41.8648 69.9603 34.5212 69.4083 30.3972C71.9763 31.9993 76.3073 30.4585 75.7784 27.331C79.2662 28.3811 81.5352 21.4515 77.1045 20.2021C77.7254 14.9589 71.0104 14.2 68.9561 17.2585C67.7986 13.878 62.4787 15.6564 62.862 18.3087C60.4627 15.7331 55.2808 16.6299 54.5603 19.8418C52.3909 17.8717 48.8111 18.7073 49.1254 21.6125C45.6913 20.0181 43.8746 24.1268 46.5422 25.4453C44.8328 26.3651 44.8864 30.1519 47.508 30.1519C47.508 32.6815 49.0411 38.4766 52.8355 41.6501C53.2418 45.1993 52.5136 47.016 51.2488 50.3045C38.7387 52.2055 29.2411 61.9637 24.9791 74.0675C20.1192 87.8654 22.4265 100.897 36.83 103.641C36.8 105.482 36.5843 107.316 36.1861 109.114C36.1789 109.182 36.1964 109.25 36.2354 109.306C36.2744 109.362 36.3323 109.402 36.3984 109.419C36.4645 109.436 36.5345 109.428 36.5955 109.397C36.6564 109.367 36.7043 109.315 36.7303 109.252C37.2434 107.466 37.5217 105.621 37.5582 103.764C41.0282 104.279 44.5731 103.738 47.7313 102.211C50.8896 100.684 53.5149 98.2414 55.2655 95.2013C57.4845 96.0443 59.7494 96.7609 62.0495 97.3476C69.2857 99.3943 78.7219 101.426 87.6599 99.0034C87.4836 103.288 87.2383 106.723 86.855 110.134C86.855 110.471 87.3226 110.571 87.3763 110.233C87.6752 108.44 88.4188 100.567 88.3728 98.7964C94.0606 97.0487 97.8627 93.101 98.7979 87.9727C100.431 79.2801 96.7512 69.5219 89.0014 61.9254ZM56.446 28.9101C56.6453 31.1484 56.446 32.7428 55.7638 33.7777C55.5108 34.1533 55.1275 34.5442 54.7979 34.5442C54.5449 34.2682 52.8892 32.5512 51.3254 33.5554C50.3059 34.2223 50.2599 35.5177 51.2258 37.2041C51.9161 38.2284 52.41 39.3721 52.6822 40.577C49.7463 37.3881 48.8495 34.3986 48.1749 30.1135C48.9541 29.973 49.6653 29.5797 50.1986 28.9944C51.5401 30.9874 54.8209 30.5888 56.446 28.9101ZM51.6934 34.0613C52.7282 33.425 53.6864 34.1916 54.5603 34.9581C55.0739 35.4104 55.9171 34.7742 56.3157 34.1916C57.3582 32.7505 57.2662 30.3588 57.1282 29.163C57.8722 29.8716 58.8603 30.2669 59.8878 30.2669C60.9153 30.2669 61.9033 29.8716 62.6474 29.163C62.8007 31.3707 67.4306 31.8766 68.6495 30.0446C69.209 33.8773 69.4773 42.1637 67.6223 45.6362C66.0892 46.3107 62.6014 47.8515 60.869 47.1693C59.3819 46.579 58.6306 44.3101 56.8982 43.3365C55.7331 42.6926 54.7366 43.4209 55.5491 44.724C57.6035 47.9895 57.4195 49.2313 55.7944 52.5888C54.3701 52.2006 53.0382 51.5308 51.8773 50.6188C53.5638 48.2041 54.0237 43.8961 53.6021 41.0292C53.2265 38.4766 52.8355 38.6299 51.8237 36.7442C51.3561 35.97 50.9422 34.5365 51.6934 34.0613ZM64.6251 49.5226C64.5639 49.551 64.5153 49.6007 64.4883 49.6625C64.4613 49.7242 64.4579 49.7938 64.4786 49.8579C64.4994 49.922 64.5429 49.9763 64.6009 50.0106C64.659 50.0448 64.7275 50.0567 64.7937 50.0438C65.451 49.9264 66.0741 49.6646 66.6181 49.2773C66.6622 49.9921 66.474 50.702 66.0815 51.301C65.9435 51.4926 66.1888 52.0675 66.6871 51.3546C66.6488 53.4703 65.5679 56.0843 63.4906 57.1114C62.0827 56.8569 60.7427 56.3134 59.5554 55.5152C58.368 54.717 57.3588 53.6815 56.5916 52.4738C58.8913 48.5337 56.8676 45.5749 56.193 44.3484C55.8174 43.6432 56.0091 43.5358 56.6223 43.9344C58.0711 44.8543 59.3435 47.4222 60.7463 47.7672C63.3909 48.4034 66.6488 46.809 68.2432 46.0961C69.0711 45.7205 69.554 45.4675 68.5575 46.717C67.2237 48.3651 66.4648 48.71 64.6251 49.5226ZM32.1847 82.2389C32.1569 82.3013 32.1526 82.3715 32.1725 82.4368C32.1923 82.5021 32.235 82.558 32.2928 82.5943C32.3505 82.6306 32.4194 82.6449 32.4869 82.6346C32.5543 82.6242 32.6158 82.5899 32.6599 82.5379C39.3826 71.9442 50.5052 64.593 56.2313 53.2557C57.1205 55.2334 60.9226 57.7783 63.2683 57.7783C63.2683 59.687 63.0766 61.956 62.8773 64.133C60.5777 63.6041 54.361 61.6571 53.2418 59.1121C53.1115 58.7978 52.6056 59.0125 52.7282 59.3268C53.7784 62.1707 60.2634 64.455 62.8083 64.9379C62.2708 70.6656 61.2059 76.3314 59.6272 81.8633C58.4697 86.0027 56.9826 91.0083 54.8362 94.7107C53.1251 97.7547 50.5069 100.189 47.3465 101.674C44.1862 103.16 40.6412 103.622 37.2056 102.997C23.0551 100.513 20.9241 87.7504 25.7303 74.2668C30.2223 61.6341 40.0571 52.7421 51.4021 51.0557C52.6353 51.965 53.9833 52.7073 55.4111 53.2634C49.662 64.3553 38.7003 71.6376 32.1847 82.2389ZM60.2864 82.1853C67.7351 79.0462 75.6492 77.1531 83.7122 76.5818C86.0118 76.4285 88.3115 76.4362 90.6111 76.4362C90.9484 76.4362 90.9561 75.8842 90.6111 75.8842C89.0473 75.7758 87.4789 75.7476 85.9122 75.7999C85.5366 72.7337 80.0097 63.7881 78.1317 61.3121C78.0836 61.2667 78.0208 61.24 77.9547 61.237C77.8886 61.234 77.8236 61.2548 77.7716 61.2957C77.7196 61.3366 77.684 61.3948 77.6713 61.4597C77.6586 61.5246 77.6696 61.5919 77.7024 61.6494C81.4662 66.9233 84.5094 73.6383 85.115 75.8306C78.377 76.0835 67.9826 77.678 60.501 81.3421C61.2063 78.7588 63.9352 68.1038 63.9965 57.579C66.1045 56.6362 67.607 53.225 67.4306 50.933C75.3786 52.7431 82.6682 56.7236 88.4878 62.4313C95.3177 69.1233 99.5031 77.7623 98.2153 87.1525C97.5331 92.5184 93.7233 96.6731 88.0355 98.1832C78.2313 100.866 68.1435 98.5358 58.462 95.5309C57.5248 95.2155 56.5701 94.9544 55.6028 94.749C57.5619 90.7204 59.1303 86.5133 60.2864 82.1853Z" fill="black"/>
<path d="M59.9108 32.8348C60.1089 32.5421 60.3731 32.3 60.682 32.1283C60.991 31.9565 61.336 31.8598 61.6892 31.846C62.2488 31.846 62.2181 31.0028 61.6892 31.0794C61.2339 31.1273 60.7955 31.2785 60.4076 31.5217C60.0197 31.7648 59.6924 32.0933 59.4509 32.4822C59.2516 32.7965 59.6962 33.1414 59.9108 32.8348ZM61.7198 34.9582C61.4056 35.2111 61.4286 36.4913 61.9038 36.4913C62.0125 36.4799 62.1142 36.4321 62.1921 36.3555C62.2701 36.2789 62.3198 36.1781 62.3331 36.0697C62.5094 35.4028 62.0571 34.7205 61.7198 34.9582ZM61.0453 41.2899C61.031 41.2299 60.9985 41.1759 60.9522 41.1351C60.906 41.0944 60.8483 41.0689 60.7871 41.0622C60.7258 41.0555 60.664 41.0678 60.61 41.0976C60.5561 41.1274 60.5127 41.1731 60.4857 41.2285C60.409 41.3359 60.2634 41.6655 60.5853 42.3324C60.8039 42.7864 61.1811 43.1446 61.6457 43.3395C62.1104 43.5344 62.6303 43.5525 63.1073 43.3902C63.1719 43.3646 63.2248 43.3161 63.2561 43.254C63.2873 43.1919 63.2946 43.1204 63.2766 43.0533C63.2586 42.9861 63.2166 42.9279 63.1586 42.8897C63.1005 42.8515 63.0304 42.8359 62.9617 42.846C61.8732 43.0606 61.2446 42.3707 61.0453 41.2899Z" fill="black"/>
</svg>
