<svg width="12" height="9" viewBox="0 0 12 9" fill="none" xmlns="http://www.w3.org/2000/svg">
<path d="M4.52396 7.27936L1.9113 4.66669C1.78628 4.54171 1.61674 4.4715 1.43996 4.4715C1.26319 4.4715 1.09365 4.54171 0.968628 4.66669C0.843648 4.79171 0.773438 4.96125 0.773438 5.13803C0.773438 5.3148 0.843648 5.48434 0.968628 5.60936L3.5813 8.22202C3.70511 8.34589 3.85212 8.44415 4.01393 8.51119C4.17573 8.57823 4.34915 8.61274 4.5243 8.61274C4.69944 8.61274 4.87286 8.57823 5.03467 8.51119C5.19647 8.44415 5.34348 8.34589 5.4673 8.22202L11.6353 2.05403C11.7603 1.92901 11.8305 1.75947 11.8305 1.58269C11.8305 1.40592 11.7603 1.23638 11.6353 1.11136C11.5103 0.986378 11.3407 0.916168 11.164 0.916168C10.9872 0.916168 10.8176 0.986378 10.6926 1.11136L4.52396 7.27936Z" fill="white"/>
</svg>
