<svg width="20" height="20" viewBox="0 0 20 20" fill="none" xmlns="http://www.w3.org/2000/svg">
<g clip-path="url(#clip0_2261_3125)">
<path d="M18.3543 1.6461C17.8331 1.12568 17.1266 0.833374 16.3901 0.833374C15.6535 0.833374 14.9471 1.12568 14.4258 1.6461L1.95654 14.1154C1.59945 14.4705 1.31633 14.8928 1.12353 15.358C0.930742 15.8232 0.832111 16.3221 0.833347 16.8256V18.3996C0.833347 18.603 0.914123 18.798 1.0579 18.9418C1.20168 19.0855 1.39669 19.1663 1.60003 19.1663H3.17403C3.67755 19.1677 4.17636 19.0693 4.64157 18.8766C5.10679 18.6839 5.52916 18.4009 5.88425 18.0439L18.3543 5.57381C18.8745 5.05262 19.1667 4.34633 19.1667 3.60996C19.1667 2.87359 18.8745 2.1673 18.3543 1.6461ZM4.80016 16.9598C4.36775 17.3893 3.78351 17.6312 3.17403 17.6329H2.36671V16.8256C2.36593 16.5235 2.4251 16.2242 2.54078 15.9451C2.65645 15.6659 2.82635 15.4125 3.04062 15.1995L12.5038 5.73635L14.2671 7.49972L4.80016 16.9598ZM17.2695 4.48973L15.3482 6.4118L13.5848 4.65226L15.5069 2.73019C15.6227 2.61466 15.7601 2.52306 15.9112 2.46063C16.0624 2.3982 16.2244 2.36616 16.388 2.36634C16.5516 2.36652 16.7135 2.39891 16.8645 2.46167C17.0156 2.52443 17.1528 2.61633 17.2683 2.73211C17.3839 2.84789 17.4754 2.9853 17.5379 3.13648C17.6003 3.28767 17.6323 3.44967 17.6322 3.61323C17.632 3.7768 17.5996 3.93873 17.5368 4.08977C17.4741 4.24082 17.3822 4.37803 17.2664 4.49356L17.2695 4.48973Z" fill="#959799"/>
</g>
<defs>
<clipPath id="clip0_2261_3125">
<rect width="20" height="20" fill="white"/>
</clipPath>
</defs>
</svg>
