<svg width="182" height="135" viewBox="0 0 182 135" fill="none" xmlns="http://www.w3.org/2000/svg">
<g clip-path="url(#clip0_2088_444)">
<path d="M4.87137 56.6207C4.97448 38.7186 6.8788 35.6171 37.5366 28.0222C50.8578 24.7222 70.4542 32.0982 86.5134 32.1907C118.644 32.3757 146.155 20.7936 163.512 32.6341C174.796 40.3319 181.414 49.7333 181.356 59.8511C181.279 73.1491 162.758 72.4498 144.244 79.1377C127.004 85.3653 114.642 107.968 89.0779 107.82C54.0084 107.618 21.363 101.891 4.67842 90.1201C-3.86097 84.0959 4.82129 65.3147 4.87137 56.6207Z" fill="#D9D9D9"/>
<path d="M117.624 12.4497C117.285 12.1457 116.274 12.2093 116.097 12.7113C116.335 12.611 116.589 12.5512 116.847 12.5345C117.104 12.4888 117.363 12.4604 117.624 12.4497ZM120.021 12.8314C120.417 12.9524 120.795 13.126 121.145 13.3476C121.116 13.2323 121.062 13.1249 120.986 13.0335C120.911 12.942 120.815 12.8688 120.707 12.8193C120.599 12.7697 120.481 12.745 120.363 12.7472C120.244 12.7493 120.127 12.7781 120.021 12.8314ZM119.243 14.2384V16.2675C119.287 16.5515 119.23 16.8418 119.081 17.0876C118.904 17.2856 118.374 17.4552 118.126 17.2643C118.337 17.4533 118.607 17.5632 118.89 17.5754C120.353 17.5896 119.18 14.9737 119.243 14.2384ZM116.79 13.9061C116.507 13.9061 116.465 14.7191 116.755 14.7191C117.045 14.7191 117.122 13.9061 116.79 13.9061ZM120.481 14.0687C120.169 14.0687 120.226 14.8676 120.481 14.8676C120.735 14.8676 120.742 14.0687 120.481 14.0687ZM116.267 17.0381C116.034 18.1128 117.32 19.2722 118.345 18.6996C117.874 18.659 117.424 18.4795 117.054 18.1838C116.684 17.8881 116.41 17.4894 116.267 17.0381ZM63.2487 34.6142C63.2818 34.6931 63.3221 34.7688 63.3689 34.8404C63.341 34.7591 63.3005 34.6828 63.2487 34.6142ZM92.2005 99.1565C91.6278 98.7252 90.8854 98.9656 90.2421 99.0504C66.2605 102.034 46.6907 102.932 45.7009 103.469C44.4424 104.134 44.8525 106.354 46.4079 106.226C60.8166 105.032 75.2324 103.865 89.6058 102.091C90.3954 102.067 91.179 101.946 91.9389 101.73C92.1835 101.628 92.3961 101.462 92.5541 101.249C92.7121 101.036 92.8097 100.785 92.8365 100.521C92.8633 100.257 92.8183 99.9915 92.7064 99.7512C92.5944 99.511 92.4196 99.3055 92.2005 99.1565ZM153.017 112.78C152.6 111.077 150.896 111.366 149.588 111.451L144.9 111.776C143.649 111.868 141.995 111.776 141.578 113.275C141.45 113.735 141.507 113.763 141.761 117.468C141.846 118.663 141.613 120.883 142.624 121.759C143.508 122.53 145.113 122.134 146.159 122.063C153.158 121.568 151.49 121.703 151.751 121.667C152.247 121.622 152.706 121.388 153.033 121.012C153.36 120.637 153.529 120.15 153.505 119.652C153.505 118.514 153.342 117.369 153.264 116.231C153.274 115.076 153.191 113.922 153.017 112.78ZM34 53.9578C42.1793 53.8369 50.3349 53.0448 58.3845 51.5893C46.3584 52.9256 41.5084 53.3356 34 53.9578ZM42.4982 47.1988C48.2071 47.0685 53.8949 46.4583 59.5016 45.3748C53.8314 45.898 48.1471 46.5131 42.4982 47.1988ZM122.969 45.0142C131.199 44.3072 139.414 43.2891 147.601 42.1862C156.524 41.0055 155.138 41.1469 145.933 42.1226C138.269 42.9498 130.598 43.8547 122.969 45.0142ZM137.35 37.5624C143.896 37.0604 150.486 36.2474 156.962 35.1374C152.819 35.4485 144.215 36.3888 137.35 37.5624ZM43.9829 15.5746C51.7831 15.2733 59.5542 14.4466 67.2433 13.1001C64.8607 13.2981 44.0536 15.5322 43.9829 15.5746Z" fill="black"/>
<path d="M156.849 89.3292C156.036 80.2795 155.59 77.1758 153.512 60.7238C153.432 59.5196 153.194 58.3311 152.805 57.1888C152.441 56.2463 151.798 55.4376 150.961 54.8714C150.124 54.3052 149.135 54.0086 148.124 54.0214C146.597 53.9578 127.812 55.393 124.51 55.6334C124.171 55.5203 123.881 54.9264 123.641 54.587C120.813 50.8894 114.563 46.4706 110.533 44.689C111.028 43.982 110.879 43.0134 111.049 42.1933C111.459 40.249 113.538 38.9693 115.206 35.2434C116.26 32.8962 115.913 33.1861 116.38 33.08C119.638 33.2535 122.903 33.2323 126.158 33.0164C139.237 31.9064 148.937 24.0587 151.058 18.6572C151.596 18.7429 152.142 18.7619 152.685 18.7137C153.122 18.6838 153.533 18.4923 153.837 18.1764C154.424 17.5542 154.728 16.4796 153.766 16.0554C154.162 15.9776 155.032 15.7938 154.848 15.1929C154.586 14.3657 152.381 14.6697 151.49 14.9383C150.076 15.3484 149.927 15.716 149.517 15.7585C149.107 15.8009 149.708 15.6171 148.103 15.8645C146.088 16.1756 143.79 16.4655 141.676 16.8119C132.429 18.3319 132.033 20.3469 129.969 20.2126C126.558 19.8238 123.116 19.8096 119.703 20.1701C121.69 17.9643 121.888 12.5487 121.909 12.478C122.001 12.1386 121.994 12.2588 122.382 12.2234C124.291 12.0255 126.002 10.7458 125.727 8.87225C125.619 8.19043 125.319 7.5535 124.862 7.03628C124.405 6.51906 123.809 6.14302 123.146 5.95233C124.334 5.40086 123.895 3.83132 123.061 3.20209C122.687 2.88731 122.237 2.67495 121.757 2.58574C121.276 2.49652 120.78 2.53349 120.318 2.69304C120.516 1.92241 119.844 1.42044 119.201 1.21541C118.812 1.09143 118.401 1.05315 117.996 1.10319C117.59 1.15322 117.201 1.2904 116.854 1.50528C117.349 -0.389487 112.682 -0.672288 112.781 1.68203C110.328 0.515476 108.617 4.19189 109.183 4.11412C108.115 4.24845 106.956 5.80386 107.868 6.7371C107.515 6.88143 107.194 7.09454 106.925 7.36402C106.656 7.6335 106.442 7.95393 106.298 8.30664C106.234 8.47286 106.205 8.65049 106.212 8.82853C106.219 9.00656 106.263 9.1812 106.34 9.34162C106.418 9.50204 106.528 9.64482 106.663 9.7611C106.798 9.87738 106.955 9.96468 107.125 10.0176C106.362 10.4984 106.298 12.0325 107.359 12.2164C107.212 12.3485 107.097 12.5122 107.023 12.6952C106.95 12.8782 106.918 13.0755 106.932 13.2724C106.945 13.4693 107.004 13.6605 107.102 13.8315C107.201 14.0025 107.337 14.1489 107.5 14.2596C107.656 14.3727 107.995 14.4505 107.981 14.705C107.981 14.7899 107.677 15.1009 107.634 15.2141C107.542 15.4554 107.542 15.7221 107.634 15.9635C107.818 16.4089 108.15 16.4089 108.525 16.5786C108.617 16.6281 109.006 16.8472 108.999 17.2007C108.95 17.6491 108.75 18.0677 108.433 18.3885C108.165 18.5511 108.136 18.3885 107.889 18.24C104.667 15.9521 101.039 14.2989 97.199 13.3688C91.299 11.8729 85.1124 11.9285 79.2402 13.5303C73.3681 15.1322 68.0102 18.2257 63.687 22.5103C63.5739 22.6234 63.1639 23.2173 62.98 23.2173C62.7781 23.1197 62.5843 23.0062 62.4003 22.878C62.1213 22.75 61.8223 22.6711 61.5165 22.6447C61.6297 22.4326 62.1175 21.9377 61.9832 21.7397C61.9832 21.6973 56.2777 21.8387 56.2564 21.8528C55.9383 21.9871 55.8605 22.6022 55.7686 22.9204C54.8707 26.2009 55.7121 28.0249 55.7686 29.8985C55.8223 31.5999 56.1865 33.2771 56.8433 34.8475C56.9988 35.2081 57.2604 36.1343 57.6563 36.304C59.6231 36.3614 61.5899 36.1906 63.5174 35.7949C63.8214 35.6889 63.7931 35.7949 63.7436 35.5475C63.6601 35.2948 63.5385 35.0564 63.383 34.8405C63.482 35.102 63.5881 35.4909 63.6517 35.6111C62.0803 35.8343 60.4949 35.9454 58.9077 35.9434C58.6258 35.9752 58.3412 35.9752 58.0593 35.9434C57.826 36.0141 57.6917 35.9434 57.6492 35.6959C56.6581 33.762 56.053 31.6536 55.8676 29.4884C56.3042 31.0304 57.0392 32.4716 58.031 33.7305C58.3421 34.1122 58.9218 34.996 59.445 35.1445C59.7647 35.1688 60.086 35.1328 60.3924 35.0384C63.4679 34.6213 63.2204 34.5718 63.2982 34.6425C63.6093 34.593 63.9274 34.5718 64.2314 34.5082C64.7475 34.388 64.5779 34.289 64.2314 33.8577C63.2766 32.643 62.4872 31.3069 61.8842 29.8844C62.4851 29.8844 63.1639 28.7673 63.3972 28.5764C63.6305 28.3855 63.5669 28.4704 63.9274 28.6118C64.5196 28.7845 65.1348 28.8656 65.7515 28.8521C68.0329 28.982 70.3217 28.8753 72.5811 28.534C79.6512 27.5159 81.4328 24.5818 84.4093 25.9959C82.6842 27.6432 80.7258 29.6228 79.9057 31.9205C79.5239 32.981 79.9057 33.1931 79.9057 33.6527C79.9057 33.9496 79.9057 33.8931 79.6087 34.1122C67.6321 43.1477 73.1185 52.8478 74.9355 59.8189C36.0503 63.0074 40.5963 62.0883 38.7723 62.965C34.8484 64.8527 36.1988 69.8583 36.4887 73.2873C41.3246 131.049 40.3772 130.067 42.0174 132.421C43.4314 134.492 46.0827 134.478 48.338 134.245C72.765 131.763 150.556 127.394 155.23 126.468C157.895 125.952 159.125 123.887 159.231 121.307C159.38 117.616 157.181 93.0763 156.849 89.3292ZM153.073 18.4026C152.296 17.7734 152.465 17.4482 153.717 17.8582C153.56 18.0989 153.337 18.2882 153.073 18.4026ZM153.886 17.5896C153.764 17.5303 153.636 17.483 153.505 17.4482C153.607 17.3181 153.693 17.1756 153.759 17.024C153.796 16.9194 153.805 16.807 153.785 16.6979C153.766 16.5887 153.718 16.4867 153.646 16.4018C154.162 16.6634 154.176 16.9462 153.957 17.4482L153.886 17.5896ZM152.388 15.0444C152.762 15.009 154.261 14.8464 154.459 15.2989C154.601 15.6241 153.752 15.7231 153.469 15.7938C152.946 15.9352 152.557 15.709 152.02 15.7938C152.417 15.8441 152.792 16.0059 153.102 16.2604C153.604 16.727 153.639 16.9674 152.685 16.8402C152.543 16.8402 152.388 17.13 152.289 17.2219C152.192 17.3299 152.074 17.4174 151.943 17.4793C151.812 17.5412 151.67 17.5763 151.525 17.5825C151.682 17.6326 151.849 17.6413 152.01 17.6079C152.171 17.5744 152.32 17.4999 152.444 17.3916C151.907 17.7593 152.649 18.2754 152.96 18.4309C152.596 18.5627 152.202 18.592 151.822 18.5158C151.581 18.5104 151.342 18.465 151.115 18.3814C151.044 18.3249 150.472 16.621 149.666 15.9706C150.499 15.4986 151.412 15.1846 152.359 15.0444H152.388ZM62.3013 23.0477C62.4757 23.1525 62.6434 23.2682 62.8033 23.3941C62.4729 23.7385 62.2177 24.1477 62.0539 24.596C61.9054 24.9707 61.9973 24.999 61.6509 25.0767C61.4105 25.1333 61.1136 25.0767 60.8661 25.1404C60.8844 24.53 60.999 23.9263 61.2055 23.3517C61.5165 22.5315 61.3539 22.4962 62.3013 23.0477ZM62.1316 25.098H61.8842C61.962 24.9707 62.0397 24.8505 62.1246 24.7303C62.1109 24.8527 62.1133 24.9762 62.1316 25.098ZM61.8771 30.1318C62.4621 31.5982 63.2524 32.9742 64.2244 34.2183L60.456 34.6637C60.1813 34.7355 59.8987 34.7735 59.6147 34.7768C59.2471 34.7061 58.9077 34.2042 58.6461 33.9143C57.4686 32.5332 56.6119 30.9083 56.1376 29.1564C55.6633 27.4046 55.5831 25.5694 55.9029 23.7829C55.9595 23.4789 56.0726 22.3689 56.3413 22.1498C56.4261 22.0932 56.1292 22.2063 61.8206 21.8952C61.231 22.7293 60.8747 23.7055 60.7883 24.7232C60.7883 25.1404 60.7388 25.0555 60.3571 25.1545C60.1486 25.1988 59.9498 25.2802 59.7702 25.3949C59.3885 25.6848 59.4097 26.0524 59.9116 26.215C59.6151 26.256 59.332 26.3649 59.0845 26.5332C58.9996 26.6039 58.8936 26.816 58.8017 26.8513C58.6277 26.8695 58.4524 26.8695 58.2785 26.8513C57.9648 26.8778 57.664 26.9883 57.4077 27.1712C57.1514 27.3541 56.9491 27.6026 56.822 27.8906C56.115 29.7571 59.6076 30.7964 60.4702 29.1491C60.5692 28.9653 60.555 28.6895 60.6894 28.5976C60.7926 28.5836 60.8972 28.5836 61.0004 28.5976C61.6367 28.5481 61.2408 28.8663 61.3469 29.3046C61.4529 29.743 61.6509 29.5662 61.8771 30.1318ZM59.2471 28.3572C59.3248 28.6542 60.5409 28.8734 60.5904 28.6825C60.2015 30.3863 57.0554 29.9339 57.1402 28.2936C57.1826 27.4381 58.0593 27.0917 58.7804 26.9574C58.5471 26.9998 58.8653 27.4735 58.9148 27.5018C59.1945 27.6116 59.5025 27.6265 59.7915 27.5442C59.5299 27.6785 59.1481 28.025 59.2471 28.3572ZM61.3681 28.6188C61.4431 28.6084 61.5193 28.6084 61.5943 28.6188C61.5299 28.6861 61.4795 28.7654 61.4458 28.8521C61.4176 28.7602 61.3893 28.6895 61.3681 28.6188ZM62.9942 28.8309C62.676 29.142 61.962 30.0116 61.6579 29.3965C61.4034 28.8946 61.9125 28.9087 62.0044 28.5199C62.0963 28.131 61.9054 28.3078 61.6579 28.3148L60.7671 28.3572C60.4985 28.3572 59.6288 28.5623 59.6006 28.1593C59.5723 27.7563 60.6116 27.5725 60.852 27.4523C61.262 27.2543 61.1772 27.1058 60.7883 27.0634C60.0813 26.9927 59.1269 27.4806 59.1198 27.0634C59.1127 26.6463 60.2086 26.5827 60.4278 26.5402C60.6469 26.4978 61.1348 26.4554 60.8378 26.1443C60.654 25.9534 59.5299 26.2292 59.8975 25.6706C60.0672 25.4232 61.8559 25.0485 62.1528 25.2747C62.2337 25.571 62.2881 25.8738 62.3155 26.1797C62.4937 26.976 62.8847 27.709 63.4467 28.3007C63.3053 28.4986 63.1497 28.6683 62.9942 28.8309ZM83.4973 25.3737C82.1153 25.2677 80.7329 25.5727 79.5239 26.2504C76.7878 27.5795 70.9055 28.7602 66.0909 28.3714C64.3516 28.2229 63.8921 28.1664 63.1002 26.6887C62.7603 26.1461 62.579 25.5191 62.577 24.8788C62.7137 24.2601 63.0673 23.7109 63.5739 23.3305C75.593 11.0286 94.682 9.60753 107.281 18.0209C107.383 18.0812 107.48 18.1498 107.571 18.2259C107.62 18.5511 107.698 19.0531 107.719 19.2935C107.903 21.4569 109.267 24.391 111.318 25.0485C112.59 25.4656 114.499 24.6525 114.146 23.0477C114.238 24.8859 111.445 25.6424 109.798 23.4648C108.686 21.9427 107.958 20.1745 107.677 18.3107C107.967 18.5158 108.059 18.7561 108.384 18.5653C108.843 18.3037 108.935 17.2997 109.055 17.1512C109.282 16.8684 109.911 17.4199 110.469 16.9038C110.588 16.7702 110.677 16.6129 110.731 16.4422C110.785 16.2716 110.802 16.0916 110.78 15.914C110.729 15.7093 110.691 15.5015 110.667 15.2918C110.667 15.1363 110.788 15.0232 110.809 14.8818C110.865 14.4434 110.561 14.3374 110.3 14.0263C110.062 13.7382 109.915 13.3866 109.876 13.0153C109.819 12.4992 109.946 11.5164 110.667 11.6013C111.389 11.6861 111.374 12.6547 111.742 13.1213C111.852 13.2365 111.994 13.3158 112.15 13.349C112.305 13.3822 112.467 13.3677 112.615 13.3074C112.762 13.2471 112.888 13.1438 112.975 13.011C113.063 12.8781 113.109 12.722 113.107 12.5628C113.107 11.6508 112.76 10.6892 112.704 9.73479C114.245 9.84791 114.521 9.16919 114.98 9.27524C115.291 9.34594 115.291 9.65702 116.592 10.6044C118.085 11.628 119.838 12.2066 121.647 12.2729C121.546 13.346 121.373 14.4112 121.131 15.4615C120.799 16.9886 120.304 18.8127 119.13 19.9298C118.133 20.8913 116.543 20.9054 115.284 20.5237C114.982 20.4201 114.687 20.2973 114.4 20.156C114.04 20.0005 114.026 19.9651 113.891 20.3681C113.685 20.7974 113.587 21.2709 113.607 21.7467C113.627 22.2226 113.763 22.6864 114.004 23.0971C113.191 21.6124 114.662 20.8347 115.963 21.1246C116.53 21.3174 117.137 21.368 117.728 21.2719C118.32 21.1757 118.879 20.9358 119.356 20.5731C119.974 20.369 120.623 20.278 121.272 20.3045C123.446 20.1596 125.627 20.1738 127.798 20.3469C129.113 20.4742 130.195 20.8842 131.467 20.3045C136.056 18.1835 137.335 17.9502 147.941 16.2816C148.322 16.218 149.043 15.9493 149.411 16.1685C149.602 16.2746 150.655 17.8795 150.606 18.4804C150.48 19.0385 150.22 19.5577 149.849 19.9934C146.279 25.2252 140.849 28.4774 134.875 30.7752C128.901 33.0729 122.432 33.3982 116.196 32.8962C116.577 32.0538 116.855 31.1683 117.023 30.2591C116.599 31.7509 114.422 36.6999 113.375 37.7392C113.092 38.022 113.234 37.9088 112.845 37.824C111.431 37.4917 111.367 39.7046 109.246 37.2584C107.253 34.9606 105.499 36.8625 104.361 36.2332C103.562 35.7949 103.498 34.5294 103.018 33.8224C102.682 33.3587 102.241 32.9816 101.731 32.7222C101.221 32.4627 100.656 32.3285 100.084 32.3306C99.0018 32.267 97.6727 32.5356 96.8596 31.6236C96.0465 30.7116 95.8698 29.347 94.8588 28.534C93.6074 27.523 92.2853 28.3219 91.9742 26.413C91.9459 26.4413 90.4895 26.0241 83.4619 25.3737H83.4973ZM113.898 21.2519C113.99 20.9691 114.089 20.6863 114.188 20.4035C115.305 21.1458 115.475 20.5944 113.87 21.2307L113.898 21.2519ZM81.0652 30.9237C82.1521 29.1411 83.4559 27.5001 84.9466 26.0383C85.1021 25.9181 89.938 26.3776 89.9734 26.3988C90.1784 26.4978 90.136 26.5897 90.1855 26.8513C90.2603 27.3843 90.4601 27.892 90.7685 28.3331C91.0769 28.7742 91.4852 29.1362 91.9601 29.3895C93.3741 30.0965 93.3741 29.0572 94.6325 31.6095C96.697 35.7171 99.7159 33.1154 101.285 34.7061C102.501 35.9363 102.049 38.5522 105.591 38.0927C106.298 38.0078 107.048 37.7462 107.62 38.2341C108.412 38.9411 108.921 40.7581 111.53 40.0864C110.215 41.967 110.554 42.4337 110.116 43.9679C109.515 46.2091 106.751 48.1462 104.502 48.9169C102.994 49.3662 101.397 49.4294 99.8573 49.1007C87.7958 47.0857 80.5561 34.2536 80.344 32.9669C80.351 32.2247 80.6047 31.5058 81.0652 30.9237ZM98.4716 57.8605C94.8234 58.1786 95.3254 58.2352 95.1204 57.9099C94.9153 57.5847 94.8941 57.2736 94.477 56.4323C96.9515 56.5808 97.3899 57.3656 98.4928 57.8605H98.4716ZM36.8987 72.3682C36.6654 69.222 35.7887 64.7255 39.5288 63.3963C40.766 62.9438 74.7587 60.4834 74.8294 60.4905C75.1829 60.5329 75.1193 60.54 75.2183 60.9854C77.5867 71.4773 72.772 82.0399 64.7334 89.0534C65.2849 89.6402 65.8505 90.2129 66.4302 90.7785L65.9141 91.1886C65.2071 90.4816 64.5001 89.7746 63.7931 89.0039C66.5893 86.6195 69.0004 83.8174 70.9409 80.6966C59.8787 81.6393 48.8023 82.5301 37.7118 83.3691L36.8987 72.3682ZM68.9047 93.154C68.1129 94.568 71.9873 98.909 69.9511 98.9302C69.131 98.9302 68.127 97.6788 67.6109 97.1557C66.6792 96.2263 65.8122 95.2342 65.0162 94.1863C64.6698 93.7196 64.4082 93.352 64.7546 92.8076C65.2602 92.2421 65.8163 91.7238 66.4161 91.2593C66.7201 90.9623 66.7201 91.0825 67.0312 91.3795C69.5269 93.7833 68.8128 93.0692 68.9047 93.154ZM152.289 126.058C116.748 127.854 83.9709 130.052 48.8258 133.411C44.8171 133.793 42.0103 133.503 41.6427 129.473C41.1337 123.944 41.466 127.069 38.8925 97.594C46.7543 96.8163 55.507 95.982 63.0578 95.2892C63.6789 95.1471 64.316 95.0876 64.9526 95.1124C65.3556 95.2043 65.8151 96.0033 66.1262 96.3355C66.9439 97.2867 67.8639 98.145 68.8694 98.8949C69.7461 99.4888 71.1459 99.6514 70.9126 98.1879C70.6369 96.4557 68.6219 94.4054 69.1168 93.3732C71.4287 95.5578 71.8953 94.6882 74.4476 93.3732C82.7406 89.1153 89.3288 82.1504 93.1196 73.6337C95.1062 69.0947 96.7253 63.6367 95.382 58.6947C108.051 57.6696 117.914 56.5737 125.62 55.7182L144.003 54.3679C149.694 54.6082 152.034 56.3404 153.264 60.7804C155.067 74.3266 154.827 72.3752 154.954 73.8104C153.865 73.7397 91.0975 78.9716 91.041 79.0069C86.924 85.5872 81.0458 90.8824 74.0729 94.2923C85.8092 93.2459 155.958 87.3 156.029 87.3142C156.396 87.4061 156.17 87.0879 156.34 87.5758C156.34 87.6465 157.909 103.073 158.517 120.381C158.666 125.089 156.531 125.867 152.289 126.058Z" fill="black"/>
</g>
<defs>
<clipPath id="clip0_2088_444">
<rect width="182" height="135" fill="white"/>
</clipPath>
</defs>
</svg>
