<svg width="181" height="119" viewBox="0 0 181 119" fill="none" xmlns="http://www.w3.org/2000/svg">
<path d="M8.99999 60.5C9.1031 42.5979 6.11009 32.1356 36.7679 24.5408C50.0891 21.2407 69.4407 12.9075 85.5 13C117.63 13.1851 144.143 31.6594 161.5 43.5C172.784 51.1978 174.058 57.8822 174 68C173.923 81.298 175.514 86.3122 157 93C139.76 99.2276 124.065 107.647 98.5 107.5C63.4306 107.298 39.6846 110.27 23 98.5C14.4606 92.4758 8.94992 69.194 8.99999 60.5Z" fill="#D9D9D9"/>
<path fill-rule="evenodd" clip-rule="evenodd" d="M55.0449 18.7053V19.2495C55.0449 19.402 55.1054 19.5482 55.2132 19.656C55.321 19.7638 55.4673 19.8244 55.6197 19.8244C55.7722 19.8244 55.9184 19.7638 56.0263 19.656C56.1341 19.5482 56.1946 19.402 56.1946 19.2495V18.6746C56.1868 18.5234 56.1211 18.3811 56.0113 18.2769C55.9014 18.1728 55.7558 18.1148 55.6044 18.115C55.5286 18.116 55.4537 18.1321 55.3843 18.1625C55.3148 18.1929 55.2521 18.2369 55.2 18.292C55.1478 18.347 55.1072 18.4119 55.0806 18.4829C55.0539 18.5539 55.0418 18.6295 55.0449 18.7053ZM54.8226 17.1032C55.6657 16.9039 56.3556 16.3367 55.1292 16.4133C54.8254 16.4557 54.5255 16.5223 54.2323 16.6126C53.0825 17.0879 54.079 17.2795 54.8226 17.1032ZM125.152 22.4383C124.799 23.1794 124.208 23.7811 123.473 24.1476C123.445 24.1578 123.42 24.1775 123.405 24.2035C123.389 24.2294 123.383 24.26 123.388 24.2899C123.392 24.3198 123.407 24.3472 123.43 24.3674C123.452 24.3876 123.481 24.3993 123.511 24.4006C123.759 24.4443 124.014 24.4261 124.254 24.3478C124.493 24.2695 124.71 24.1334 124.884 23.9515C125.058 23.7696 125.185 23.5476 125.253 23.305C125.321 23.0625 125.329 22.8069 125.274 22.5609C125.274 22.5284 125.261 22.4972 125.238 22.4742C125.215 22.4512 125.184 22.4383 125.152 22.4383ZM122.101 16.3597C121.954 16.3219 121.797 16.3433 121.666 16.4192C121.534 16.4951 121.437 16.6196 121.396 16.7659C121.326 17.0154 121.313 17.2773 121.357 17.5325C121.357 17.6849 121.418 17.8312 121.526 17.939C121.634 18.0468 121.78 18.1074 121.932 18.1074C122.085 18.1074 122.231 18.0468 122.339 17.939C122.447 17.8312 122.507 17.6849 122.507 17.5325C122.507 16.9806 122.63 16.5053 122.101 16.3597ZM95.74 91.6713C95.1191 91.357 83.2455 92.1312 82.9466 93.465C82.8852 93.7563 83.0769 94.8754 83.4142 95.0594C84.081 95.412 95.5023 94.7681 96.1309 93.5263C96.3096 93.2243 96.3686 92.8662 96.2962 92.5228C96.2238 92.1794 96.0254 91.8755 95.74 91.6713ZM83.5598 94.7374C83.3234 94.3661 83.1959 93.9358 83.1919 93.4956C83.3452 92.8058 89.669 92.4302 90.3666 92.3842C90.3499 93.0035 90.5094 93.6149 90.8265 94.1472C89.9527 94.2852 83.9737 94.9597 83.5598 94.7604V94.7374ZM95.5713 93.2044C94.9658 93.6336 91.892 94.0246 91.1561 94.1165C91.2205 93.5098 91.0918 92.8981 90.7882 92.3688C91.7003 92.3075 94.6208 92.1466 95.487 92.2232C95.717 92.3918 95.7246 92.9131 95.5713 93.2197V93.2044ZM75.5955 93.488C75.5748 93.4751 75.5509 93.4682 75.5265 93.4682C75.5022 93.4682 75.4783 93.4751 75.4576 93.488C75.4576 93.4113 60.8168 101.659 60.3722 102.533C60.3524 102.575 60.3422 102.621 60.3422 102.667C60.3422 102.714 60.3524 102.759 60.3722 102.801C60.8398 104.143 76.1168 117.956 76.753 118.27C76.937 118.362 77.1669 118.201 77.8875 117.818C79.4205 116.997 92.5052 110.007 93.8543 108.88C94.2299 108.497 94.4599 105.047 94.2529 104.656C94.0459 104.265 75.5955 93.5646 75.5955 93.488ZM76.9216 117.634C75.2889 116.338 62.3575 104.687 60.9241 102.709C62.2579 101.452 75.1586 93.9786 75.5495 93.7486C77.5272 94.952 91.7617 103.614 93.586 104.84C92.6218 105.119 91.7046 105.54 90.8648 106.09C90.4279 106.511 91.5164 107.293 93.0264 108.757C90.7192 110.244 79.2749 116.377 76.9216 117.634ZM93.4634 108.32C93.3867 108.244 91.5394 106.442 91.4551 106.373C92.1997 105.909 92.9672 105.481 93.7546 105.093C93.7571 106.176 93.6544 107.257 93.448 108.32H93.4634Z" fill="black"/>
<path fill-rule="evenodd" clip-rule="evenodd" d="M87.0935 106.91C86.5569 107.14 80.0108 109.309 78.1634 110.06C77.6205 110.331 77.0288 110.49 76.4234 110.528C76.3161 110.528 76.937 109.332 81.6358 105.668C82.1264 105.285 83.0692 104.557 83.1689 103.959C83.6211 101.981 78.2631 104.94 73.4722 106.81C72.9768 107.076 72.4361 107.248 71.8779 107.316C71.8242 107.002 72.905 106.013 72.974 105.936C75.8332 102.778 79.4588 101.475 79.2136 100.31C78.838 98.4857 72.1845 102.035 70.7817 102.61C69.6013 103.108 67.7156 103.706 67.8306 103.706C67.5776 103.805 67.8306 103.982 67.8766 103.959C67.9226 103.936 70.3525 103.192 70.9427 102.932C71.8242 102.594 77.7188 99.7505 78.7 100.417C79.0909 100.693 74.921 102.939 72.5677 105.538C72.1538 105.982 71.0347 106.887 71.3796 107.623C71.4429 107.736 71.5388 107.829 71.6549 107.887C71.771 107.946 71.9021 107.969 72.0312 107.952C73.1733 107.952 80.9613 104.051 82.5633 103.928C82.1956 104.413 81.7562 104.84 81.2602 105.193C80.1181 106.097 76.8067 108.796 76.0401 110.037C75.6415 110.681 75.9711 111.064 76.4924 111.072C77.1823 111.072 78.0254 110.605 80.1027 109.823C87.1472 107.109 87.3694 107.232 87.2545 106.979C87.2486 106.964 87.2397 106.95 87.2283 106.938C87.217 106.926 87.2035 106.917 87.1885 106.911C87.1735 106.904 87.1574 106.901 87.1411 106.901C87.1247 106.901 87.1086 106.904 87.0935 106.91Z" fill="black"/>
<path fill-rule="evenodd" clip-rule="evenodd" d="M160.474 77.682C160.374 69.6641 159.653 53.2987 158.067 45.3651C157.231 41.1568 155.422 35.4002 152.057 32.6177C150.631 31.4449 148.531 30.3181 144.721 28.2101C144.767 28.1105 138.704 25.6576 138.42 26.4701C138.185 25.0721 137.855 23.6917 137.432 22.3385C137.999 22.1545 137.746 20.4988 137.984 19.5637C138.221 18.6285 139.118 17.9616 139.578 17.1951C140.613 15.4857 140.789 12.5039 140.597 10.5186C140.413 8.67125 137.715 4.54732 135.937 3.87277C134.159 3.19822 132.334 3.22122 130.456 2.84562C128.923 2.53134 127.789 1.68049 126.072 1.46586C124.355 1.25124 123.327 2.23239 121.856 2.23239C120.384 2.23239 118.728 1.09026 117.188 0.99828C116.35 0.985293 115.537 1.2765 114.898 1.81784C114.26 2.35918 113.839 3.11386 113.715 3.94176C113.529 5.17576 113.675 6.43702 114.139 7.59569C114.602 8.75436 115.366 9.76858 116.352 10.5339C117.552 11.2932 118.901 11.7871 120.307 11.9827C120.215 15.8996 120.629 14.8495 120.169 15.1944C119.709 15.5394 119.855 17.9539 120.016 18.6208C120.085 18.8891 120.154 18.9888 120.484 19.0961C120.3 19.8626 119.004 21.5183 120.169 21.9246C120.323 21.9782 120.936 22.0855 120.997 22.1085C121.154 22.8355 121.385 23.5444 121.687 24.2242C121.984 24.9076 122.419 25.5228 122.963 26.0317C123.508 26.5406 124.151 26.9325 124.853 27.183C125.957 27.6122 126.83 27.7272 127.474 27.9495C127.563 28.2665 127.609 28.5938 127.612 28.923C124.875 29.6425 122.296 30.8669 120.008 32.5334C115.861 35.8984 109.967 49.8569 108.426 51.39C107.828 51.9802 93.747 54.7091 91.6697 56.1195C91.2635 56.3955 91.2481 56.6331 91.3018 57.1237C90.7959 57.2156 88.6649 57.6142 88.4273 58.0665C88.3571 58.395 88.3757 58.7363 88.481 59.0553C86.5842 58.7011 84.6705 58.4453 82.7473 58.2888C82.3954 58.297 82.0491 58.379 81.7308 58.5295C81.4126 58.6801 81.1296 58.8958 80.9 59.1626C80.2561 59.9292 80.7773 59.7989 80.0951 59.6915C78.6464 59.4846 73.457 61.2246 72.8054 61.5312C72.8054 61.2553 72.8054 61.0636 72.5141 60.9103C71.6586 60.6624 70.7648 60.5741 69.8773 60.6497C69.3407 61.01 71.4103 60.8873 72.2688 61.3319C72.2688 61.9221 72.3455 67.9777 72.2688 69.1659C72.2688 69.3805 72.2688 69.3498 72.1079 69.3728C71.3413 69.4801 70.2375 69.3728 69.9002 69.6181C70.0229 66.9506 69.9002 60.4197 69.5323 60.0365C69.31 59.8065 65.2168 59.3159 60.7632 58.7794C60.779 55.5572 60.5998 52.337 60.2266 49.1364C59.4064 42.023 57.6894 33.6372 52.3237 29.3829C52.6346 29.5099 52.9768 29.5393 53.3049 29.4672C53.7429 29.2934 54.2144 29.22 54.6846 29.2526C55.4512 29.4596 55.5508 30.0191 57.4671 28.7314C57.5898 28.647 57.9117 28.67 58.1647 28.4171C59.0308 27.5509 58.5939 26.3781 58.5939 25.5043C58.7209 24.9102 58.7622 24.301 58.7166 23.6953C58.6931 23.6049 58.649 23.5213 58.5879 23.4508C58.5267 23.3803 58.4501 23.325 58.364 23.289C58.364 23.036 58.6323 22.5838 58.249 22.0932C58.8009 21.8019 59.3988 21.4646 59.0922 20.8668C58.5065 19.93 58.0233 18.9328 57.6511 17.8926C57.4135 17.0034 57.7354 15.869 57.7201 14.9108C57.7201 14.2516 57.7891 13.4621 57.7201 12.7415C58.3113 12.3287 58.7631 11.7459 59.0155 11.0705C59.0714 10.7975 59.0594 10.5149 58.9806 10.2476C58.9017 9.98025 58.7584 9.73639 58.5633 9.53743C58.3103 9.37646 58.2567 9.53743 58.2643 9.06218C58.292 8.89541 58.2845 8.72467 58.2423 8.56097C58.2 8.39727 58.124 8.24422 58.019 8.11168C57.6971 7.79741 56.9612 7.45247 56.7313 7.13053C56.3403 6.55563 56.1104 5.98073 55.3745 5.75077C54.8533 5.58213 54.3627 5.91174 54.0101 5.79676C53.5272 5.64346 53.0289 5.12222 52.477 5.67412C52.3538 5.74093 52.2186 5.78277 52.0792 5.79724C51.9397 5.81171 51.7988 5.79852 51.6645 5.75844C51.2046 5.36751 51.0896 4.69296 50.3077 4.54732C49.8631 4.47066 48.9893 4.68529 48.652 4.54732C48.0995 4.14061 47.4899 3.81774 46.843 3.58915C46.1198 3.52028 45.3901 3.5826 44.6891 3.77312C44.1985 3.87277 43.5699 3.81911 43.0564 3.89577C41.9909 4.0644 41.6843 4.98424 40.9791 5.42883C40.2738 5.87342 39.0857 5.88108 38.4112 6.87757C37.8439 7.72075 37.9666 8.63293 37.7443 9.47611C37.6523 9.83638 37.1617 10.2426 36.9778 10.6106C36.5485 11.4614 36.8781 12.3199 36.8704 13.0558C36.8628 13.7917 36.3492 14.4662 36.4948 15.3554C36.6132 15.7995 36.8077 16.2196 37.0697 16.5972C37.0729 16.7214 37.0574 16.8455 37.0238 16.9651C36.7899 17.5683 36.7419 18.2277 36.8858 18.8584C37.0112 19.4631 37.3033 20.0207 37.729 20.4682C38.2655 20.9357 38.5415 20.8131 38.9324 21.48C39.0968 21.8326 39.344 22.1403 39.653 22.3768C40.2202 22.7601 40.9177 22.4305 41.255 22.5991C41.4648 22.7099 41.6937 22.7801 41.9296 22.8061C41.7409 22.9014 41.5779 23.0408 41.4543 23.2123C37.2844 23.7412 31.7807 26.7844 28.4233 30.9466C27.0972 32.656 24.8666 35.1242 24.0311 37.1019C19.5392 47.2507 21.7315 63.1639 19.9225 68.0774L15.4459 79.7516C15.2313 80.3112 14.6794 83.0937 14.8787 84.0519C15.2006 85.4776 16.6954 83.6916 17.6075 82.6798C17.0403 84.6958 17.048 85.2247 16.749 93.1583C16.657 95.6418 16.5727 98.3477 16.5344 100.624C16.5322 100.641 16.5335 100.657 16.5383 100.673C16.5431 100.689 16.5512 100.703 16.5621 100.716C16.573 100.728 16.5865 100.738 16.6015 100.745C16.6166 100.751 16.6329 100.755 16.6494 100.755C16.864 100.755 16.726 101 17.0403 94.6683C17.2626 90.2148 17.5155 86.0602 17.5385 85.7229C17.652 84.4127 17.9408 83.1237 18.3971 81.8903C20.5377 80.291 22.9466 79.0865 25.5105 78.3336C28.3639 77.5702 31.377 77.6474 34.1876 78.5559C34.9541 78.8088 37.0161 79.3224 37.752 78.9774C39.285 78.2109 43.2327 75.6737 43.8842 74.133C44.2061 73.3664 44.4668 72.7456 44.7197 72.1707C45.8925 72.278 47.3336 72.5769 48.6137 72.5922C50.0471 72.5922 50.9669 72.3623 52.5537 70.9595C58.387 71.0898 64.8182 70.9135 67.8843 70.7986C69.9309 71.5651 76.2165 73.811 77.7419 75.3211C78.3398 75.9037 78.6924 77.5287 78.907 79.3377C79.1896 81.5 79.264 83.6844 79.1293 85.8609C74.9287 86.6657 69.5783 87.9382 65.439 88.9653C65.2072 88.9008 64.965 88.8826 64.7262 88.9117C63.63 89.0267 64.1436 89.4712 63.7833 88.3598C63.8006 88.3638 63.8186 88.3635 63.8357 88.359C63.8528 88.3544 63.8685 88.3456 63.8814 88.3335C63.8943 88.3213 63.904 88.3062 63.9097 88.2894C63.9153 88.2725 63.9166 88.2546 63.9136 88.2371C63.9024 86.7638 63.7301 85.2962 63.4001 83.8602C63.3464 83.6456 62.9708 83.5383 62.7409 83.4693C60.2573 82.7488 50.668 81.7829 48.56 82.3272C47.188 82.6875 37.6906 87.5932 37.2614 88.6357C36.8321 89.6782 35.667 95.9484 35.4524 97.1059C30.4852 98.5546 26.5683 99.7504 24.6519 100.402C24.6361 100.407 24.6214 100.415 24.6088 100.426C24.5963 100.437 24.5861 100.451 24.5789 100.466C24.5718 100.481 24.5677 100.497 24.5671 100.514C24.5665 100.531 24.5693 100.547 24.5753 100.563C24.6673 100.847 27.1815 99.5435 52.9369 92.775C53.1957 93.4358 53.5274 94.0657 53.9258 94.653C53.1592 94.837 52.293 95.1742 52.0401 95.8794C51.9951 96.0283 51.9877 96.1861 52.0184 96.3385C52.0492 96.491 52.1172 96.6335 52.2164 96.7533C52.8452 97.4575 53.6836 97.9411 54.608 98.133C56.2288 98.5393 57.9129 98.6278 59.5674 98.3937C61.1561 98.2551 62.7215 97.9204 64.2279 97.3972C65.8683 96.7073 65.761 95.6801 65.1324 95.2126C64.4847 94.8316 63.773 94.5719 63.0321 94.446C63.7297 93.1813 63.0781 93.7408 64.1206 93.4879C64.7105 93.3471 65.2494 93.0445 65.6767 92.614C66.3512 91.9241 66.8035 90.2224 66.1596 89.4023C69.3943 88.6357 82.4024 85.4163 85.5835 85.6539C91.3554 86.0755 133.323 103.33 143.257 106.657C143.273 106.662 143.289 106.664 143.306 106.662C143.322 106.661 143.338 106.657 143.352 106.649C143.367 106.642 143.38 106.631 143.391 106.619C143.401 106.606 143.409 106.592 143.414 106.576C143.419 106.561 143.421 106.544 143.42 106.528C143.419 106.512 143.414 106.496 143.407 106.481C143.399 106.467 143.389 106.454 143.376 106.443C143.364 106.432 143.349 106.424 143.334 106.419C140.735 105.515 134.94 103.207 128.003 100.433C128.341 99.6201 129.23 96.9986 129.92 96.0941C130.203 95.7261 130.188 95.6955 132.717 95.8411C139.348 96.2244 145.189 96.0481 151.551 94.0168C155.437 92.7673 157.346 89.8852 158.45 86.0295C158.672 86.0985 159.278 86.2978 159.492 86.3438C159.554 86.3586 159.618 86.3587 159.679 86.3441C159.74 86.3294 159.797 86.3004 159.845 86.2595C160.604 85.4853 160.474 79.1921 160.474 77.682ZM55.6275 24.9754C55.42 25.0509 55.196 25.0695 54.979 25.029C54.7619 24.9886 54.5597 24.8906 54.3933 24.7454C54.2279 24.613 54.0983 24.4411 54.0166 24.2455C53.9349 24.05 53.9037 23.837 53.9258 23.6263C53.9156 23.5948 53.9184 23.5605 53.9335 23.531C53.9485 23.5016 53.9747 23.4793 54.0062 23.4691C54.0378 23.459 54.072 23.4617 54.1015 23.4768C54.131 23.4919 54.1532 23.5181 54.1634 23.5496C54.5418 24.094 55.0763 24.5109 55.6964 24.7454C55.7162 24.7617 55.7307 24.7835 55.7381 24.808C55.7455 24.8326 55.7456 24.8587 55.7382 24.8833C55.7308 24.9078 55.7164 24.9296 55.6967 24.946C55.677 24.9624 55.6529 24.9726 55.6275 24.9754ZM48.4297 18.2606C48.4559 18.0354 48.5464 17.8225 48.6903 17.6473C48.859 17.4787 49.3726 17.586 49.7328 17.3407C50.0023 17.1278 50.2067 16.8437 50.3231 16.5205C50.7523 15.6697 51.4345 16.3289 52.385 14.9261C52.6276 14.5317 52.8159 14.1062 52.9446 13.6614C53.4812 13.4084 54.1787 13.7763 54.8533 12.6649C55.0756 12.2893 55.2212 11.8983 55.6198 11.791C55.9187 12.113 56.2177 13.3241 57.4288 12.8565C57.4288 13.2704 57.3368 15.3631 57.3138 15.5317C57.2145 16.0369 57.1606 16.55 57.1528 17.0648C57.1528 18.5978 57.8581 19.441 58.6399 21.0431C58.7626 21.296 58.1187 21.5413 57.7967 21.7176C57.3426 21.5503 56.8726 21.4296 56.394 21.3573C54.9069 20.9971 53.7188 21.7713 52.4387 22.1239C52.2217 22.1252 52.0054 22.0995 51.7948 22.0472C51.3119 22.0012 50.806 22.4918 50.1238 22.5838C49.9459 22.6187 49.7616 22.5994 49.5949 22.5283C49.4281 22.4572 49.2866 22.3377 49.1886 22.1852C49.1059 21.9044 49.047 21.6173 49.0123 21.3267C48.9433 21.0507 48.859 20.7748 48.7977 20.5065C48.675 19.9546 49.0353 19.74 48.6137 18.9734C48.3224 18.4522 48.3301 18.6821 48.4297 18.2606ZM48.721 33.8978C49.2371 32.9183 49.6581 31.8915 49.9781 30.8317C50.4074 33.4992 50.6373 34.8483 50.7447 35.5228C50.1851 35.0552 50.1314 34.8789 48.721 33.8671V33.8978ZM51.0206 37.0176C51.3962 39.3171 51.3119 38.7959 51.3809 39.2712C51.1978 38.9262 50.9739 38.6045 50.714 38.313C50.7998 37.8066 50.8383 37.2934 50.829 36.7799L51.0206 37.0176ZM48.2458 38.3973C47.788 37.9214 47.3701 37.4086 46.9963 36.8642C47.3753 35.9779 47.8027 35.1129 48.2764 34.2734C49.8861 35.5075 49.7635 35.4922 50.1621 35.9904C50.2206 36.6432 50.2206 37.2999 50.1621 37.9527L48.2458 38.3973ZM48.3454 38.8956C49.2576 40.9269 49.6255 44.2613 49.8172 46.4842C48.8603 43.6843 47.5737 41.0082 45.9845 38.5123C46.2953 38.0876 46.5721 37.6391 46.8124 37.1709C47.1281 37.7588 47.5058 38.3113 47.9391 38.8189C47.9945 38.8537 48.0569 38.8759 48.1218 38.8839C48.1867 38.8918 48.2526 38.8853 48.3148 38.8649L48.3454 38.8956ZM43.7922 22.4918C43.8546 22.5112 43.9188 22.524 43.9839 22.5301C44.1623 22.5221 44.3334 22.4565 44.4716 22.3433C44.6098 22.23 44.7076 22.075 44.7504 21.9016C44.873 21.8249 44.965 21.7406 44.9573 21.595C44.9497 21.4493 43.3016 19.1957 45.4019 18.0383C45.5872 18.0182 45.7733 18.0662 45.9257 18.1734C46.0781 18.2807 46.1862 18.4397 46.2298 18.6208C46.329 19.0297 46.5384 19.4035 46.8353 19.7016C46.8586 20.1916 46.9227 20.6787 47.027 21.158C47.0883 21.4417 46.8737 21.8096 46.8277 22.2005C46.7204 22.967 47.4639 23.8102 47.7322 24.5001C48.0925 25.4276 47.8472 26.4241 48.7057 27.2443C49.5642 28.0645 49.4032 27.3899 49.7022 29.2296C49.3446 30.6754 48.8518 32.0843 48.2304 33.4379C47.3643 32.2114 42.9797 25.052 42.0982 23.4193C42.4278 23.22 43.4549 22.6374 43.7616 22.4611L43.7922 22.4918ZM41.4926 23.5113C42.0522 24.8144 47.6249 33.6448 47.6249 33.7215C47.3566 34.5723 45.8159 38.0984 45.0877 38.4816C43.4856 37.3395 39.0934 25.328 38.7791 24.2395C39.6439 23.869 40.5536 23.6139 41.485 23.4806L41.4926 23.5113ZM49.4032 57.3536C48.56 57.0853 45.8389 47.8486 43.409 42.7359C41.9525 39.6698 39.0934 34.603 35.9736 33.2539C32.6009 31.8051 26.3307 35.2775 25.6638 39.7847C25.2566 42.7572 25.4971 45.7827 26.369 48.6535C29.987 59.5919 34.8851 68.315 45.3483 70.8139C45.5936 70.3233 44.7274 70.7296 51.6108 70.9135C51.2735 71.1759 50.9145 71.4093 50.5377 71.6111C49.2499 72.3086 46.8047 71.7491 44.9957 71.5498L45.2256 71.0515C34.4482 68.6446 29.4044 59.5536 25.7941 48.8221C24.8823 45.8648 24.6208 42.7453 25.0275 39.6774C25.7174 34.8023 32.2099 31.3069 35.805 32.518C36.7216 32.8595 37.5608 33.3808 38.2732 34.0511C37.9313 30.9795 37.8467 27.8847 38.0202 24.7991C38.1611 24.6739 38.3124 24.5611 38.4725 24.4618C39.1317 26.7614 42.8877 37.7534 44.7964 38.9722C44.9174 39.0438 45.0592 39.0721 45.1984 39.0526C45.3377 39.0331 45.4662 38.9669 45.5629 38.8649C47.2876 41.8314 48.8973 44.8668 49.5412 48.0633C49.9055 49.8274 49.9985 51.6368 49.8172 53.429C48.7287 48.9218 45.7162 42.4063 42.2898 39.2865C45.7929 45.3344 48.3454 55.008 49.4875 56.9167C49.9444 57.0426 50.4111 57.1298 50.8826 57.1773C50.6833 52.5781 50.53 42.9888 48.583 38.8266C48.8207 38.8266 50.4994 38.4663 50.4994 38.4663C50.8021 38.8298 51.0595 39.2288 51.2659 39.6544C51.5802 40.26 51.4729 39.8001 51.9481 43.0195C54.2477 57.8825 54.1174 57.8059 54.4163 57.9668C52.9139 57.7752 50.2694 57.6142 49.4032 57.3536ZM54.493 54.2875C51.5035 37.3165 51.4729 36.8413 50.2157 29.7585C50.3154 29.4212 50.392 29.1453 50.4457 28.946C50.921 29.5515 53.5118 32.8706 53.7954 33.5988C53.3739 33.9744 51.8561 34.6183 52.316 35.1319C52.523 35.3695 54.2324 36.8489 54.7689 37.3855C55.0602 38.6196 54.6003 52.1412 54.493 54.2875ZM35.759 97.0062C35.9736 96.0327 37.3764 89.7012 37.7673 88.812C38.0509 88.1528 47.2953 83.247 48.7517 82.8791C50.852 82.3272 62.2886 83.4616 63.0858 83.9752C63.4457 85.3123 63.6565 86.6851 63.7143 88.0685C62.4266 86.5354 52.4617 86.9417 52.3544 89.1033C52.3522 89.1743 52.3671 89.2447 52.3978 89.3087C52.4285 89.3727 52.474 89.4284 52.5307 89.4712C52.5256 90.3978 52.6311 91.3216 52.8449 92.2231C46.958 93.8098 41.071 95.4655 35.759 97.0062ZM64.9868 95.8105C65.3777 97.0752 60.7862 97.6195 59.4601 97.7728C57.8855 97.9971 56.2824 97.9164 54.7383 97.5351C54.0637 97.3512 52.8143 96.8606 52.5767 96.2474C52.4617 95.9561 52.8373 95.6801 53.1132 95.5345C53.4628 95.3519 53.8336 95.2129 54.217 95.1206C54.6346 95.696 55.1946 96.153 55.8421 96.4467C56.6086 96.784 59.8817 96.5463 61.0162 96.301C61.5144 96.1937 62.0433 96.0481 62.7945 94.8446C63.2544 94.9136 64.8565 95.3889 64.9868 95.8105ZM61.3228 95.5422C60.7479 95.8871 56.6853 96.1631 56.0644 95.9101C54.0101 95.0899 52.8909 91.8858 52.8066 89.6246C54.4766 89.9919 56.1906 90.1184 57.8964 90.0002C59.1765 89.8315 62.2043 89.3103 63.3158 88.7507C63.9826 91.2649 62.5722 94.814 61.3228 95.5422ZM65.6077 91.5869C65.4002 91.9973 65.1087 92.3596 64.7521 92.6501C64.3956 92.9406 63.982 93.1529 63.5381 93.2732C63.9391 92.1979 64.1291 91.0554 64.0976 89.9082C64.1581 89.7814 64.246 89.6697 64.3548 89.5809C64.4637 89.4922 64.5908 89.4287 64.7272 89.395C64.8635 89.3613 65.0056 89.3582 65.1433 89.386C65.2809 89.4137 65.4108 89.4716 65.5234 89.5556C66.0983 89.9312 65.8453 90.9353 65.6077 91.5869ZM144.56 28.4324C149.742 31.2916 152.042 32.4874 153.697 34.9939C152.656 34.0983 151.33 33.6012 149.957 33.5912C145.043 33.4225 142.629 40.6969 141.372 45.4034C139.287 53.2527 140.567 63.1869 140.452 64.6433C139.126 65.8774 132.334 69.4035 129.299 71.0515C129.72 69.2732 131.223 62.4127 132.204 59.7069C133.522 56.0735 137.317 47.611 137.57 45.7713C137.639 45.2271 137.531 45.1581 135.922 44.1156C136.542 44.1156 138.221 43.947 138.742 43.8473C138.965 43.8473 139.08 43.7477 139.164 43.2801C139.448 41.6551 139.999 28.2638 140.045 26.838C139.992 26.8074 143.901 28.0568 144.583 28.4324H144.56ZM138.65 26.6004C138.999 26.5752 139.35 26.6142 139.685 26.7154C139.302 32.2727 138.919 42.046 138.558 43.2954C138.152 43.3721 136.711 43.4717 136.152 43.5101C134.956 43.5791 134.925 43.5101 134.802 43.6787C134.68 43.8473 134.848 44.0773 135.071 44.2306C135.462 44.5066 136.765 45.3267 136.949 45.5414C136.772 46.454 136.499 47.3455 136.136 48.2012C131.805 59.6992 132.066 56.1655 129.153 68.7749C129.348 62.7347 129.906 56.7116 130.824 50.7385C131.437 47.45 132.181 44.3609 134.657 37.3242C135.63 34.603 137.646 29.3906 137.723 29.4212C138.107 28.5051 138.425 27.5624 138.673 26.6004H138.65ZM125.336 73.6424C125.481 74.2096 125.481 74.133 125.435 74.1406L125.198 74.0946C125.198 74.018 124.784 66.322 124.983 63.1409C125.343 57.5069 125.803 51.3977 126.233 45.5107C126.44 42.6592 127.221 36.5346 127.198 36.7646L127.965 36.1974C128.283 36.832 128.644 37.4441 129.046 38.0294C129.199 38.2363 129.406 38.497 129.651 38.52C129.483 39.9074 126.93 57.024 126.179 67.9624C125.765 73.9183 126.179 72.6536 125.573 73.1978C125.501 73.2463 125.444 73.313 125.406 73.3911C125.368 73.4692 125.352 73.5559 125.359 73.6424H125.336ZM129.889 38.5276C130.472 38.5276 131.1 37.3012 131.867 36.7799C132.166 37.0942 133.07 38.5966 133.668 38.7959C131.131 45.756 128.417 55.4603 128.425 71.4808C127.773 71.8334 126.892 72.3393 126.24 72.7149C126.624 66.1917 129.398 44.7825 129.912 38.5276H129.889ZM137.938 28.2254C137.692 28.992 134.051 37.7841 133.798 38.1903C133.403 37.8028 133.051 37.3736 132.748 36.9102C132.104 36.0441 131.882 35.7604 130.786 36.9946C132.411 33.9284 135.584 30.8163 136.918 29.2679C138.19 27.8115 138.022 27.9342 137.938 28.2254ZM120.767 12.1283C121.339 12.3044 121.951 12.3044 122.523 12.1283C122.96 11.9339 123.443 11.8649 123.918 11.929C124.588 12.2378 125.276 12.5041 125.98 12.7262C126.85 12.7185 127.718 12.6494 128.578 12.5192C128.972 12.7034 129.306 12.9957 129.541 13.362C129.776 13.7284 129.902 14.1538 129.904 14.5889C128.476 14.7963 127.097 15.2612 125.834 15.961C125.756 15.7093 125.603 15.4879 125.394 15.3272C125.185 15.1666 124.932 15.0747 124.669 15.0641C123.412 14.9129 122.142 14.8975 120.882 15.0181C120.77 14.0387 120.732 13.0522 120.767 12.067V12.1283ZM120.468 18.6668C120.277 18.3295 119.901 15.7157 120.284 15.4321C120.346 15.5087 120.077 15.2711 121.534 15.2864C122.56 15.3188 123.584 15.411 124.6 15.5624C125.29 15.685 125.405 15.9993 125.366 16.6662C125.366 17.9003 125.405 17.7776 125.366 18.1609C125.366 18.2682 125.32 18.5518 125.236 18.6132C123.659 18.8985 122.044 18.8959 120.468 18.6055V18.6668ZM127.513 27.3056C125.412 26.7077 123.488 26.6311 122.193 23.9635C121.357 22.2465 121.817 21.7483 121.059 21.526C120.777 21.4924 120.5 21.4308 120.231 21.342C120.231 20.8284 120.875 19.7553 120.997 19.2111C122.27 19.3632 123.557 19.3632 124.83 19.2111C125.596 19.0961 126.003 18.9658 125.88 17.4097V16.2216C127.083 15.8536 129.636 15.2481 129.943 15.1638C129.944 15.5808 130.001 15.9957 130.111 16.3979C130.231 16.6508 130.438 16.8521 130.694 16.9651C130.735 16.9833 130.779 16.9918 130.824 16.99C130.869 16.9881 130.913 16.976 130.952 16.9545C130.991 16.933 131.025 16.9027 131.051 16.866C131.076 16.8293 131.093 16.7871 131.1 16.7428C131.276 16.0299 131.414 15.3937 131.468 15.0871C131.468 15.2558 131.537 14.5505 132.043 14.2746C132.809 13.876 133.998 14.7652 134.082 16.0223C134.128 16.6355 133.515 17.747 133.055 19.0271C132.779 19.7936 134.45 20.1232 135.032 20.4068C135.247 20.9051 135.117 21.4646 135.408 21.7636C135.845 22.0331 136.325 22.2274 136.826 22.3385C137.355 24.0328 137.739 25.7688 137.976 27.5279C136.029 29.5745 135.592 30.0651 135.071 30.594C133.034 32.5289 131.307 34.7652 129.95 37.2245C129.406 34.0281 128.371 31.2073 128.256 30.2797C128.164 29.5592 128.318 28.2868 127.98 27.6046C127.929 27.5234 127.861 27.4545 127.78 27.4028C127.699 27.3511 127.608 27.3179 127.513 27.3056ZM127.735 29.9041C128.103 31.2686 129.084 35.6991 129.368 37.4775C128.9 36.7723 128.325 35.6071 128.325 35.6071C128.305 35.5656 128.276 35.529 128.24 35.5002C128.204 35.4714 128.162 35.4511 128.117 35.4408C128.072 35.4305 128.026 35.4304 127.981 35.4406C127.936 35.4509 127.894 35.4711 127.858 35.4998L127.298 35.9291C127.513 33.9361 127.727 31.9048 127.758 29.9041H127.735ZM127.513 29.2219C127.444 34.8636 126.317 39.892 125.857 45.5107C124.324 64.398 124.324 63.4705 124.477 70.1547C123.649 64.1144 122.492 52.3635 121.856 45.9936C122.308 45.6487 124.493 43.9853 124.738 43.4794C124.853 43.2341 124.738 42.9812 124.186 42.9812C123.227 43.0535 122.263 43.0535 121.304 42.9812C121.886 40.6049 125.221 31.9355 126.11 29.6359C126.562 29.5056 126.938 29.3752 127.513 29.2219ZM91.8767 56.6944C93.0648 55.445 107.974 52.5321 108.786 51.7426C109.928 50.5928 113.071 43.4564 116.275 38.0447C118.997 33.4455 120.476 31.7438 125.773 29.7892C124.5 32.9396 122.017 39.1025 120.898 42.6899C120.829 42.9122 120.729 43.1575 120.898 43.3031C121.319 43.717 123.082 43.4717 124.094 43.4871C123.381 44.1999 121.419 45.6487 121.419 45.6487C121.381 45.6766 121.351 45.7139 121.332 45.757C121.313 45.8 121.306 45.8473 121.311 45.894C121.633 49.4507 123.611 70.6759 124.47 73.7574L123.09 73.4048C122.198 72.9669 121.23 72.7065 120.238 72.6382C121.986 63.9458 121.357 61.5159 121.572 56.7787C121.572 56.2881 119.502 46.4305 119.487 46.3539C119.487 46.3214 119.474 46.2902 119.451 46.2672C119.428 46.2442 119.397 46.2313 119.364 46.2313C119.332 46.2313 119.301 46.2442 119.278 46.2672C119.255 46.2902 119.242 46.3214 119.242 46.3539C119.372 49.7113 120.323 52.9077 120.974 56.5718C118.521 58.8713 115.953 62.0524 111.776 63.0873C109.193 63.7388 97.0968 66.3757 95.487 66.4907C94.1686 65.0189 91.6697 57.6756 91.8767 56.6944ZM90.4203 57.7139C90.4203 57.7139 91.3401 57.4916 91.3248 57.3459C92.0406 60.0394 92.9421 62.68 94.023 65.2489C93.3261 65.4644 92.6137 65.6259 91.892 65.7318C91.4551 65.7318 91.7617 66.1151 90.6962 63.5855C90.0397 62.013 89.4766 60.403 89.0099 58.764C88.8795 58.2351 88.6573 58.2888 90.4203 57.7139ZM81.4442 59.3313C82.0498 58.6644 82.4867 58.5647 88.5423 59.3313C89.0808 61.159 89.7337 62.9511 90.4969 64.697C89.2508 65.6684 87.8224 66.38 86.2963 66.7896C86.2504 66.46 86.143 66.5596 86.4037 66.5826C86.6238 66.5889 86.8425 66.5456 87.0437 66.456C87.2449 66.3665 87.4234 66.2329 87.5661 66.0652C87.7088 65.8975 87.812 65.6999 87.8682 65.487C87.9244 65.2741 87.9321 65.0512 87.8907 64.835C87.8294 64.0684 85.6371 62.474 85.0162 62.0371C85.3848 62.113 85.7673 62.0838 86.12 61.9528C86.1516 61.9426 86.1777 61.9204 86.1928 61.8909C86.2079 61.8614 86.2107 61.8272 86.2005 61.7957C86.1904 61.7641 86.1681 61.738 86.1386 61.7229C86.1092 61.7078 86.0749 61.705 86.0434 61.7152C84.7556 62.0524 83.4525 60.5194 83.2839 60.4734C82.6936 60.3278 83.0616 61.6998 81.7508 62.52C81.5592 62.6427 80.8233 62.3667 80.7773 61.9911C80.6808 61.5262 80.6907 61.0454 80.8062 60.5848C80.9217 60.1242 81.1398 59.6957 81.4442 59.3313ZM72.8744 61.7458C73.8555 61.3932 78.8533 59.8448 80.2944 60.2128C80.1322 60.8251 80.0957 61.4639 80.1871 62.0908C80.2358 62.2899 80.3269 62.4762 80.4541 62.6369C80.5813 62.7976 80.7417 62.929 80.9243 63.0222C81.1069 63.1153 81.3074 63.1679 81.5123 63.1765C81.7171 63.1851 81.9213 63.1494 82.1111 63.0719C82.6453 62.7157 83.0468 62.1929 83.2532 61.5849C83.9354 61.9988 87.3235 64.2447 87.2775 65.0419C87.2775 65.5785 86.9939 66.0307 86.4573 65.9847C86.0043 65.8224 85.5761 65.598 85.1849 65.3179C84.7912 65.0035 84.3763 64.7166 83.9431 64.4594C83.8742 64.4236 83.7945 64.4146 83.7194 64.4341C83.6443 64.4536 83.579 64.5001 83.5362 64.5648C83.4934 64.6296 83.476 64.7078 83.4874 64.7846C83.4989 64.8614 83.5383 64.9312 83.5982 64.9806C83.5982 64.9806 84.173 65.4099 84.8093 65.8238C85.7674 66.5903 86.097 67.2955 84.9089 67.6558C84.7229 67.711 84.5275 67.7272 84.335 67.7035C84.1424 67.6798 83.9568 67.6165 83.7898 67.5178C83.5945 67.1321 83.3353 66.7822 83.0233 66.483C82.884 66.1249 82.6344 65.8204 82.3105 65.6137C81.9866 65.407 81.6054 65.3087 81.2219 65.3332C80.8233 65.3792 80.7926 65.5785 80.831 65.3945C81.0149 64.4823 79.8498 63.9304 79.0373 64.0838C77.7265 64.3444 76.9983 66.0767 76.5691 67.3415C76.3084 67.8934 77.3356 67.2802 72.8514 68.8746C72.9778 66.6483 72.9778 64.4167 72.8514 62.1904C72.8131 61.6615 72.7977 61.7842 72.8744 61.7458ZM76.7837 67.4258C77.2053 66.5213 78.1328 64.8273 79.1216 64.674C79.5049 64.605 80.2791 64.8656 80.1948 65.2565C80.0288 66.2945 79.5501 67.2572 78.8227 68.0161C78.9146 68.1694 76.5154 68.2154 76.7837 67.4258ZM81.1223 65.9618C81.3062 65.7778 82.3794 66.1534 82.41 66.7283C82.4637 67.6864 81.5515 68.8286 80.762 69.3575C80.509 69.5338 79.5125 68.7213 79.2826 68.3917C79.8301 67.534 80.4453 66.7214 81.1223 65.9618ZM82.4177 68.5143C82.4714 68.4376 83.2379 66.736 83.3682 68.1464C83.4219 68.6983 82.6017 68.9895 82.0651 68.9129C82.1898 68.7866 82.3075 68.6535 82.4177 68.5143ZM99.4653 78.4792C96.2382 80.9857 95.7783 84.2818 96.3072 88.2141C91.1255 86.3745 87.1702 85.148 85.6295 85.0177C83.5442 85.0607 81.4688 85.3175 79.4359 85.7842C79.6429 83.7223 79.5509 76.4862 78.0868 74.9991C76.6227 73.5121 71.3107 71.4808 69.31 70.7142H69.7623C69.9386 70.6223 69.6473 69.8174 70.3142 69.7714C71.119 69.7254 72.2458 70.032 72.6138 69.7101C72.7236 69.5432 72.7871 69.3501 72.7977 69.1505C73.6409 68.8822 75.6262 68.2767 76.6304 68.0161C76.968 68.284 77.3632 68.4699 77.7849 68.559C78.2065 68.6481 78.6432 68.6381 79.0603 68.5296C79.2903 69.0432 80.3634 70.17 81.0303 69.8021C81.2152 69.6952 81.392 69.5748 81.5592 69.4418C82.0441 69.5762 82.5589 69.5547 83.0309 69.3805C83.2807 69.3124 83.5035 69.1693 83.6694 68.9706C83.8353 68.7718 83.9362 68.5269 83.9584 68.269C84.3598 68.3843 84.7877 68.3659 85.1777 68.2165C85.5676 68.0672 85.8984 67.795 86.12 67.4412C87.8006 67.0635 89.3734 66.3086 90.7192 65.2336C90.8649 65.5478 91.0028 65.8161 91.1178 66.0001C91.1559 66.0648 91.2095 66.1189 91.2737 66.1577C91.3379 66.1965 91.4108 66.2188 91.4858 66.2224C92.2523 66.299 94.0613 65.4558 94.1379 65.4558C94.4006 66.0036 94.7273 66.5183 95.1114 66.9889C95.2494 67.1269 95.4794 67.0886 95.694 67.0656C97.9169 66.7973 108.955 64.421 111.906 63.6852C115.739 62.727 118.238 60.0365 120.867 57.4763C120.721 61.8761 121.296 64.0224 119.556 72.6612C115.938 73.1111 112.353 73.7974 108.825 74.7155C105.736 75.597 102.056 76.4709 99.4653 78.4869V78.4792ZM110.649 93.6028L110.381 93.4955C110.319 89.6016 111.285 86.0142 114.137 83.3543C114.389 83.4185 114.645 83.4672 114.903 83.5C111.967 86.0142 110.81 89.6782 110.649 93.6028ZM122.753 80.8248C120.453 82.1739 121.127 82.9021 119.02 83.1244C117.331 83.2404 115.634 83.1087 113.983 82.7334C112.65 82.3042 113.355 81.7906 114.75 81.6373C114.988 81.6756 116.858 81.691 117.739 81.6373C117.811 81.6258 117.877 81.589 117.924 81.5335C117.972 81.478 117.998 81.4075 117.998 81.3345C117.998 81.2616 117.972 81.191 117.924 81.1355C117.877 81.08 117.811 81.0432 117.739 81.0317C116.745 80.9462 115.746 80.9308 114.75 80.9858C114.115 80.9766 113.484 80.9021 112.864 80.7635C112.803 80.663 112.767 80.5487 112.76 80.431C112.753 80.3133 112.776 80.1957 112.826 80.0889C113.631 79.606 117.425 79.79 118.054 79.767C118.128 79.7553 118.195 79.7176 118.244 79.6607C118.292 79.6038 118.319 79.5314 118.319 79.4565C118.319 79.3817 118.292 79.3092 118.244 79.2523C118.195 79.1954 118.128 79.1577 118.054 79.1461C116.796 79.1727 115.538 79.1061 114.29 78.9468C113.753 78.8548 112.504 78.5865 112.596 78.0423C112.765 77.0611 114.781 77.9043 116.199 77.8046C117.199 77.7897 118.19 77.603 119.127 77.2527C119.197 77.2314 119.256 77.1831 119.29 77.1184C119.325 77.0537 119.332 76.978 119.311 76.9078C119.289 76.8377 119.241 76.7789 119.176 76.7444C119.112 76.7099 119.036 76.7025 118.966 76.7238C118.007 76.9544 117.034 77.1234 116.053 77.2298C115.991 77.2169 115.936 77.1817 115.897 77.1309C115.859 77.0801 115.841 77.0171 115.846 76.9538C115.857 76.8106 115.893 76.6704 115.953 76.5399C116.349 76.0244 116.879 75.629 117.486 75.3977C119.663 74.4932 121.319 75.3977 123.81 75.5587C124.123 76.9762 124.52 78.3737 124.998 79.744C124.235 80.0494 123.494 80.4106 122.783 80.8248H122.753ZM125.681 79.8896C125.412 78.9851 124.416 75.7044 124.316 74.9378C124.712 74.7446 125.129 74.5979 125.558 74.5009C125.911 75.8117 126.562 78.0883 126.984 79.3607C126.572 79.5664 126.147 79.7431 125.711 79.8896H125.681ZM127.85 79.8896C127.444 78.9698 126.24 74.6849 125.964 73.6117C127.283 72.5309 139.118 66.713 140.881 64.9423C141.433 64.3904 139.57 54.0039 141.755 45.4571C142.92 40.8579 145.204 33.6295 149.918 33.7905C153.153 33.8978 155 36.366 156.051 39.4475C157.975 45.1198 157.208 52.9921 157.208 52.9154C157.208 59.3466 154.909 69.0125 150.309 73.6117C146.837 77.0918 130.012 80.2805 127.881 79.9126L127.85 79.8896ZM159.454 85.7152C158.557 85.4776 154.441 83.9599 152.701 83.8143C143.663 83.0477 144.223 81.3307 138.635 78.8778C141.701 78.1113 148.516 76.3329 150.777 74.0946C155.552 69.3575 157.76 59.5919 157.737 52.9844C157.914 50.6703 157.914 48.346 157.737 46.032C159.431 55.6442 160.474 82.8024 159.454 85.7152Z" fill="black"/>
<path fill-rule="evenodd" clip-rule="evenodd" d="M40.933 33.8978L38.4188 34.1891C39.1853 34.9099 39.8833 35.7003 40.5038 36.55L41.2013 34.2504C41.2226 34.2092 41.2317 34.1628 41.2277 34.1166C41.2237 34.0704 41.2066 34.0263 41.1786 33.9893C41.1505 33.9524 41.1125 33.9242 41.069 33.908C41.0256 33.8918 40.9784 33.8883 40.933 33.8978ZM113.646 103.851C113.014 103.451 112.316 103.166 111.584 103.008C113.324 100.18 113.01 96.8759 112.55 96.5847C112.117 96.1435 111.541 95.8716 110.925 95.8181C108.625 95.3352 103.053 95.2969 101.581 96.5234C101.259 96.7916 101.067 97.2286 101.382 97.5198C101.232 99.3368 101.613 101.158 102.478 102.763C101.711 102.909 100.822 103.2 100.531 103.89C100.481 104.038 100.467 104.196 100.491 104.351C100.515 104.506 100.576 104.653 100.669 104.779C101.257 105.509 102.063 106.032 102.968 106.274C104.568 106.76 106.247 106.935 107.912 106.787C109.504 106.722 111.082 106.465 112.611 106.021C114.305 105.392 114.29 104.357 113.646 103.851ZM101.65 97.6578C103.298 98.1079 105.001 98.3195 106.709 98.2864C108.571 98.159 110.41 97.7984 112.182 97.2132C112.336 98.2678 112.279 99.3422 112.016 100.375C111.753 101.408 111.288 102.378 110.649 103.23C110.494 103.501 110.271 103.727 110.002 103.884C109.733 104.041 109.428 104.125 109.116 104.127C108.043 104.265 105.115 104.342 104.517 104.074C102.577 103.177 101.619 99.9191 101.65 97.6578ZM107.882 106.09C106.3 106.24 104.703 106.078 103.183 105.614C102.495 105.427 101.861 105.077 101.336 104.595C101.213 104.465 101.014 104.204 101.075 104.043C101.274 103.537 102.248 103.276 102.784 103.185C103.169 103.77 103.696 104.248 104.317 104.572C105.084 104.963 109.331 104.917 110.12 104.511C110.612 104.21 111.029 103.801 111.339 103.315C111.791 103.445 113.37 103.982 113.477 104.411C113.822 105.729 109.262 106.044 107.882 106.128V106.09Z" fill="black"/>
</svg>
