<svg width="30" height="30" viewBox="0 0 30 30" fill="none" xmlns="http://www.w3.org/2000/svg">
<path fill-rule="evenodd" clip-rule="evenodd" d="M6.0086 22.3418C6.43671 20.329 8.68185 19.0612 8.55953 14.722C8.43129 10.215 11.7161 6 15.001 6C18.2839 6 21.5687 10.215 21.4405 14.722C21.3162 19.0612 23.5633 20.329 23.9914 22.3418C24.4609 24.5527 5.53905 24.5527 6.0086 22.3418Z" stroke="white" stroke-width="1.5"/>
<path fill-rule="evenodd" clip-rule="evenodd" d="M17 4C17 5.10538 16.1054 6 15 6C13.8968 6 13 5.10538 13 4C13 2.89462 13.8968 2 15 2C16.1054 2 17 2.89462 17 4Z" stroke="white" stroke-width="1.5"/>
<path d="M18 24C18 25.6571 16.6571 27 15 27C13.3429 27 12 25.6571 12 24" stroke="white" stroke-width="1.5"/>
</svg>
